KouangSiWaterfall-Regular.ufo
<glyph name="uni0E81" format="2">
  <advance width="635"/>
  <unicode hex="0E81"/>
  <anchor x="367" y="516" name="top"/>
  <anchor x="320" y="-26" name="bottom"/>
  <outline>
    <contour>
      <point x="57" y="454" type="curve" smooth="yes"/>
      <point x="45" y="465"/>
      <point x="74" y="496"/>
      <point x="94" y="516" type="curve" smooth="yes"/>
      <point x="113" y="535"/>
      <point x="137" y="557"/>
      <point x="153" y="550" type="curve" smooth="yes"/>
      <point x="198" y="529"/>
      <point x="228" y="453"/>
      <point x="234" y="460" type="curve" smooth="yes"/>
      <point x="258" y="487"/>
      <point x="294" y="555"/>
      <point x="381" y="554" type="curve" smooth="yes"/>
      <point x="433" y="553"/>
      <point x="472" y="521"/>
      <point x="502" y="492" type="curve" smooth="yes"/>
      <point x="552" y="444"/>
      <point x="590" y="353"/>
      <point x="586" y="254" type="curve" smooth="yes"/>
      <point x="581" y="141"/>
      <point x="553" y="86"/>
      <point x="491" y="-8" type="curve" smooth="yes"/>
      <point x="478" y="-28"/>
      <point x="449" y="6"/>
      <point x="431" y="23" type="curve" smooth="yes"/>
      <point x="409" y="44"/>
      <point x="399" y="57"/>
      <point x="381" y="82" type="curve" smooth="yes"/>
      <point x="378" y="86"/>
      <point x="378" y="90"/>
      <point x="381" y="94" type="curve" smooth="yes"/>
      <point x="407" y="122"/>
      <point x="468" y="179"/>
      <point x="468" y="248" type="curve" smooth="yes"/>
      <point x="468" y="305"/>
      <point x="447" y="380"/>
      <point x="407" y="419" type="curve" smooth="yes"/>
      <point x="381" y="444"/>
      <point x="372" y="451"/>
      <point x="344" y="452" type="curve" smooth="yes"/>
      <point x="301" y="454"/>
      <point x="267" y="421"/>
      <point x="259" y="400" type="curve" smooth="yes"/>
      <point x="243" y="358"/>
      <point x="270" y="326"/>
      <point x="267" y="271" type="curve" smooth="yes"/>
      <point x="260" y="141"/>
      <point x="243" y="62"/>
      <point x="204" y="22" type="curve" smooth="yes"/>
      <point x="184" y="2"/>
      <point x="172" y="-11"/>
      <point x="147" y="-11" type="curve" smooth="yes"/>
      <point x="114" y="-11"/>
      <point x="71" y="55"/>
      <point x="66" y="109" type="curve" smooth="yes"/>
      <point x="62" y="156"/>
      <point x="87" y="231"/>
      <point x="132" y="242" type="curve" smooth="yes"/>
      <point x="141" y="244"/>
      <point x="144" y="242"/>
      <point x="156" y="241" type="curve"/>
      <point x="156" y="287"/>
      <point x="150" y="340"/>
      <point x="129" y="379" type="curve" smooth="yes"/>
      <point x="114" y="407"/>
      <point x="78" y="435"/>
    </contour>
  </outline>
</glyph>
<glyph name="uni0E84" format="2">
  <advance width="622"/>
  <unicode hex="0E84"/>
  <anchor x="310" y="539" name="top"/>
  <anchor x="314" y="-15" name="bottom"/>
  <outline>
    <contour>
      <point x="67.2288" y="114.037" type="line"/>
      <point x="67.2288" y="52.2404"/>
      <point x="105.852" y="-36.5925"/>
      <point x="179.235" y="-36.5925" type="curve" smooth="yes"/>
      <point x="229.445" y="-36.5925"/>
      <point x="252.619" y="17.4797"/>
      <point x="252.619" y="63.8273" type="curve" smooth="yes"/>
      <point x="252.619" y="110.175"/>
      <point x="194.685" y="106.313"/>
      <point x="179.235" y="144.936" type="curve" smooth="yes"/>
      <point x="156.062" y="195.146"/>
      <point x="268.068" y="175.834"/>
      <point x="268.068" y="210.595" type="curve" smooth="yes"/>
      <point x="271.931" y="291.703"/>
      <point x="183.098" y="260.805"/>
      <point x="183.098" y="303.29" type="curve" smooth="yes"/>
      <point x="183.098" y="372.811"/>
      <point x="256.481" y="426.883"/>
      <point x="322.141" y="426.883" type="curve" smooth="yes"/>
      <point x="414.836" y="426.883"/>
      <point x="453.459" y="349.637"/>
      <point x="453.459" y="264.667" type="curve" smooth="yes"/>
      <point x="453.459" y="183.559"/>
      <point x="380.075" y="117.9"/>
      <point x="380.075" y="52.2404" type="curve" smooth="yes"/>
      <point x="380.075" y="21.342"/>
      <point x="434.147" y="-21.1433"/>
      <point x="465.046" y="-21.1433" type="curve" smooth="yes"/>
      <point x="550.016" y="-21.1433"/>
      <point x="561.603" y="183.559"/>
      <point x="561.603" y="233.769" type="curve"/>
      <point x="561.603" y="241.493"/>
      <point x="561.603" y="283.978"/>
      <point x="561.603" y="291.703" type="curve"/>
      <point x="542.292" y="426.883"/>
      <point x="453.459" y="538.89"/>
      <point x="310.554" y="538.89" type="curve" smooth="yes"/>
      <point x="202.409" y="538.89"/>
      <point x="71.0911" y="453.92"/>
      <point x="71.0911" y="338.051" type="curve" smooth="yes"/>
      <point x="71.0911" y="299.428"/>
      <point x="109.714" y="272.392"/>
      <point x="109.714" y="241.493" type="curve" smooth="yes"/>
      <point x="109.714" y="206.732"/>
      <point x="63.3665" y="187.421"/>
      <point x="67.2288" y="114.037" type="curve"/>
    </contour>
  </outline>
</glyph>
<glyph name="uni0E87" format="2">
  <advance width="395"/>
  <unicode hex="0E87"/>
  <anchor x="185" y="500" name="top"/>
  <anchor x="189" y="-175" name="bottom"/>
  <outline>
    <contour>
      <point x="120.412" y="-138.467" type="curve" smooth="yes"/>
      <point x="109.639" y="-138.467"/>
      <point x="62.9553" y="-127.694"/>
      <point x="52.1821" y="-124.103" type="curve"/>
      <point x="131.185" y="-109.738"/>
      <point x="235.326" y="-2.00666"/>
      <point x="235.326" y="80.5877" type="curve" smooth="yes"/>
      <point x="235.326" y="209.866" type="line" smooth="yes"/>
      <point x="235.326" y="267.323"/>
      <point x="228.144" y="443.285"/>
      <point x="141.959" y="443.285" type="curve"/>
      <point x="134.777" y="436.103" type="line"/>
      <point x="134.777" y="410.965" type="line"/>
      <point x="177.869" y="407.374"/>
      <point x="192.233" y="349.917"/>
      <point x="192.233" y="317.598" type="curve" smooth="yes"/>
      <point x="192.233" y="278.096"/>
      <point x="177.869" y="224.23"/>
      <point x="131.185" y="224.23" type="curve" smooth="yes"/>
      <point x="62.9553" y="224.23"/>
      <point x="45" y="306.824"/>
      <point x="45" y="357.099" type="curve" smooth="yes"/>
      <point x="45" y="428.92"/>
      <point x="102.457" y="533.061"/>
      <point x="185.051" y="533.061" type="curve" smooth="yes"/>
      <point x="325.103" y="533.061"/>
      <point x="332.285" y="274.505"/>
      <point x="332.285" y="177.546" type="curve" smooth="yes"/>
      <point x="332.285" y="51.8592"/>
      <point x="271.237" y="-138.467"/>
    </contour>
  </outline>
</glyph>
<glyph name="uni0E95" format="2">
  <advance width="661"/>
  <unicode hex="0E95"/>
  <anchor x="412" y="500" name="top"/>
  <anchor x="406" y="0" name="bottom"/>
  <outline>
    <contour>
      <point x="352.041" y="396.374" type="curve" smooth="yes"/>
      <point x="355.745" y="414.895"/>
      <point x="374.266" y="426.008"/>
      <point x="396.491" y="426.008" type="curve" smooth="yes"/>
      <point x="459.463" y="426.008"/>
      <point x="496.505" y="318.586"/>
      <point x="492.8" y="266.727" type="curve" smooth="yes"/>
      <point x="485.392" y="114.855"/>
      <point x="426.125" y="100.038"/>
      <point x="426.125" y="55.5878" type="curve" smooth="yes"/>
      <point x="426.125" y="29.6584"/>
      <point x="481.688" y="-7.3836"/>
      <point x="503.913" y="-11.0878" type="curve"/>
      <point x="577.997" y="0.0248"/>
      <point x="600.222" y="211.164"/>
      <point x="600.222" y="266.727" type="curve" smooth="yes"/>
      <point x="600.222" y="355.628"/>
      <point x="548.363" y="522.317"/>
      <point x="433.533" y="522.317" type="curve" smooth="yes"/>
      <point x="385.379" y="522.317"/>
      <point x="355.745" y="451.937"/>
      <point x="326.111" y="451.937" type="curve"/>
      <point x="326.111" y="451.937" type="line"/>
      <point x="326.111" y="451.937"/>
      <point x="322.407" y="451.937"/>
      <point x="322.407" y="451.937" type="curve"/>
      <point x="289.069" y="488.979"/>
      <point x="266.844" y="518.613"/>
      <point x="214.985" y="518.613" type="curve" smooth="yes"/>
      <point x="85.3384" y="518.613"/>
      <point x="52.0006" y="359.332"/>
      <point x="52.0006" y="259.319" type="curve" smooth="yes"/>
      <point x="52.0006" y="196.347"/>
      <point x="59.409" y="-7.3836"/>
      <point x="166.831" y="-7.3836" type="curve" smooth="yes"/>
      <point x="222.394" y="-7.3836"/>
      <point x="252.027" y="51.8836"/>
      <point x="252.027" y="100.038" type="curve" smooth="yes"/>
      <point x="252.027" y="155.601"/>
      <point x="226.098" y="214.868"/>
      <point x="163.127" y="207.46" type="curve"/>
      <point x="152.014" y="233.389"/>
      <point x="155.718" y="274.136"/>
      <point x="155.718" y="296.361" type="curve" smooth="yes"/>
      <point x="155.718" y="344.515"/>
      <point x="155.718" y="385.262"/>
      <point x="177.943" y="426.008" type="curve"/>
      <point x="177.943" y="426.008"/>
      <point x="181.648" y="426.008"/>
      <point x="185.352" y="426.008" type="curve"/>
      <point x="255.732" y="426.008"/>
      <point x="263.14" y="300.065"/>
      <point x="270.548" y="263.023" type="curve" smooth="yes"/>
      <point x="277.957" y="229.685"/>
      <point x="329.816" y="307.473"/>
      <point x="344.632" y="333.403" type="curve" smooth="yes"/>
      <point x="370.562" y="370.445"/>
      <point x="344.632" y="351.924"/>
    </contour>
  </outline>
</glyph>
<glyph name="uni0E97" format="2">
  <advance width="781"/>
  <unicode hex="0E97"/>
  <anchor x="484" y="500" name="top"/>
  <anchor x="484" y="-30" name="bottom"/>
  <outline>
    <contour>
      <point x="260.723" y="104.2" type="line"/>
      <point x="306.4" y="104.2"/>
      <point x="329.238" y="153.683"/>
      <point x="329.238" y="195.553" type="curve" smooth="yes"/>
      <point x="329.238" y="370.648" type="line" smooth="yes"/>
      <point x="329.238" y="439.163"/>
      <point x="409.173" y="526.71"/>
      <point x="473.882" y="541.936" type="curve"/>
      <point x="477.688" y="541.936"/>
      <point x="496.72" y="541.936"/>
      <point x="504.333" y="541.936" type="curve"/>
      <point x="664.202" y="541.936"/>
      <point x="694.653" y="351.616"/>
      <point x="694.653" y="226.004" type="curve" smooth="yes"/>
      <point x="694.653" y="187.94"/>
      <point x="679.427" y="-9.9924"/>
      <point x="610.912" y="-9.9924" type="curve" smooth="yes"/>
      <point x="576.654" y="-9.9924"/>
      <point x="511.946" y="35.6844"/>
      <point x="530.978" y="66.1356" type="curve" smooth="yes"/>
      <point x="572.848" y="138.457"/>
      <point x="580.461" y="187.94"/>
      <point x="580.461" y="260.262" type="curve" smooth="yes"/>
      <point x="580.461" y="336.39"/>
      <point x="553.816" y="446.776"/>
      <point x="462.462" y="446.776" type="curve"/>
      <point x="458.656" y="446.776"/>
      <point x="447.237" y="446.776"/>
      <point x="443.43" y="446.776" type="curve"/>
      <point x="428.205" y="435.356"/>
      <point x="428.205" y="420.131"/>
      <point x="428.205" y="401.099" type="curve" smooth="yes"/>
      <point x="428.205" y="344.003"/>
      <point x="435.818" y="286.907"/>
      <point x="435.818" y="229.811" type="curve" smooth="yes"/>
      <point x="435.818" y="127.038"/>
      <point x="382.528" y="-9.9924"/>
      <point x="260.723" y="-9.9924" type="curve" smooth="yes"/>
      <point x="161.757" y="-9.9924"/>
      <point x="93.2416" y="92.7804"/>
      <point x="93.2416" y="184.134" type="curve" smooth="yes"/>
      <point x="93.2416" y="237.424"/>
      <point x="119.886" y="286.907"/>
      <point x="119.886" y="336.39" type="curve" smooth="yes"/>
      <point x="119.886" y="366.841"/>
      <point x="70.4032" y="363.035"/>
      <point x="74.2096" y="427.744" type="curve" smooth="yes"/>
      <point x="78.016" y="477.227"/>
      <point x="100.854" y="534.323"/>
      <point x="157.95" y="534.323" type="curve" smooth="yes"/>
      <point x="237.885" y="534.323"/>
      <point x="237.885" y="473.42"/>
      <point x="237.885" y="420.131" type="curve" smooth="yes"/>
      <point x="237.885" y="347.809"/>
      <point x="199.821" y="279.294"/>
      <point x="199.821" y="206.972" type="curve" smooth="yes"/>
      <point x="199.821" y="176.521"/>
      <point x="222.659" y="104.2"/>
      <point x="260.723" y="104.2" type="curve"/>
    </contour>
  </outline>
</glyph>
<glyph name="uni0E99" format="2">
  <advance width="698"/>
  <unicode hex="0E99"/>
  <anchor x="345" y="500" name="top"/>
  <anchor x="348" y="-35" name="bottom"/>
  <outline>
    <contour>
      <point x="189" y="355" type="curve"/>
      <point x="189" y="331"/>
      <point x="158" y="331"/>
      <point x="146" y="331" type="curve" smooth="yes"/>
      <point x="103" y="331"/>
      <point x="80" y="390"/>
      <point x="80" y="426" type="curve" smooth="yes"/>
      <point x="80" y="483"/>
      <point x="116" y="544"/>
      <point x="178" y="544" type="curve" smooth="yes"/>
      <point x="197" y="544"/>
      <point x="214" y="537"/>
      <point x="226" y="528" type="curve" smooth="yes"/>
      <point x="300" y="476"/>
      <point x="306" y="378"/>
      <point x="306" y="291" type="curve" smooth="yes"/>
      <point x="306" y="274"/>
      <point x="306" y="257"/>
      <point x="306" y="241" type="curve" smooth="yes"/>
      <point x="306" y="193"/>
      <point x="308" y="153"/>
      <point x="327" y="137" type="curve" smooth="yes"/>
      <point x="351" y="117"/>
      <point x="376" y="106"/>
      <point x="408" y="106" type="curve" smooth="yes"/>
      <point x="483" y="106"/>
      <point x="505" y="177"/>
      <point x="505" y="237" type="curve" smooth="yes"/>
      <point x="505" y="332"/>
      <point x="478" y="410"/>
      <point x="421" y="467" type="curve" smooth="yes"/>
      <point x="420" y="468"/>
      <point x="420" y="469"/>
      <point x="420" y="471" type="curve" smooth="yes"/>
      <point x="420" y="490"/>
      <point x="520" y="554"/>
      <point x="541" y="554" type="curve" smooth="yes"/>
      <point x="543" y="554"/>
      <point x="544" y="553"/>
      <point x="545" y="552" type="curve" smooth="yes"/>
      <point x="615" y="415"/>
      <point x="618" y="291"/>
      <point x="615" y="247" type="curve" smooth="yes"/>
      <point x="607" y="146"/>
      <point x="538" y="-7"/>
      <point x="394" y="-7" type="curve" smooth="yes"/>
      <point x="328" y="-7"/>
      <point x="294" y="4"/>
      <point x="257" y="54" type="curve"/>
      <point x="244" y="22"/>
      <point x="237" y="12"/>
      <point x="223" y="-18" type="curve" smooth="yes"/>
      <point x="223" y="-19"/>
      <point x="222" y="-19"/>
      <point x="221" y="-19" type="curve" smooth="yes"/>
      <point x="206" y="-19"/>
      <point x="114" y="32"/>
      <point x="114" y="48" type="curve" smooth="yes"/>
      <point x="114" y="49"/>
      <point x="114" y="50"/>
      <point x="115" y="51" type="curve" smooth="yes"/>
      <point x="188" y="125"/>
      <point x="209" y="178"/>
      <point x="209" y="283" type="curve" smooth="yes"/>
      <point x="209" y="309"/>
      <point x="204" y="334"/>
    </contour>
  </outline>
</glyph>
<glyph name="uni0E9A" format="2">
  <advance width="745"/>
  <unicode hex="0E9A"/>
  <anchor x="378" y="580" name="top"/>
  <anchor x="378" y="-51" name="bottom"/>
  <outline>
    <contour>
      <point x="277" y="378" type="curve" smooth="yes"/>
      <point x="276" y="325"/>
      <point x="277" y="228"/>
      <point x="279" y="192" type="curve"/>
      <point x="279" y="139"/>
      <point x="342" y="96"/>
      <point x="419" y="96" type="curve" smooth="yes"/>
      <point x="513" y="96"/>
      <point x="551" y="154"/>
      <point x="551" y="217" type="curve" smooth="yes"/>
      <point x="551" y="277"/>
      <point x="546" y="325"/>
      <point x="549" y="375" type="curve" smooth="yes"/>
      <point x="551" y="413"/>
      <point x="548" y="445"/>
      <point x="548" y="508" type="curve" smooth="yes"/>
      <point x="548" y="558"/>
      <point x="576" y="548"/>
      <point x="626" y="550" type="curve" smooth="yes"/>
      <point x="654" y="551"/>
      <point x="663" y="492"/>
      <point x="663" y="478" type="curve" smooth="yes"/>
      <point x="663" y="375"/>
      <point x="663" y="365"/>
      <point x="659" y="271" type="curve" smooth="yes"/>
      <point x="658" y="255"/>
      <point x="659" y="256"/>
      <point x="659" y="231" type="curve"/>
      <point x="640" y="96"/>
      <point x="553" y="-16"/>
      <point x="412" y="-16" type="curve" smooth="yes"/>
      <point x="306" y="-16"/>
      <point x="177" y="60"/>
      <point x="177" y="179" type="curve" smooth="yes"/>
      <point x="177" y="220"/>
      <point x="192" y="253"/>
      <point x="192" y="286" type="curve" smooth="yes"/>
      <point x="192" y="321"/>
      <point x="176" y="365"/>
      <point x="165" y="409" type="curve"/>
      <point x="122" y="417"/>
      <point x="92" y="444"/>
      <point x="92" y="490" type="curve" smooth="yes"/>
      <point x="92" y="537"/>
      <point x="115" y="591"/>
      <point x="165" y="591" type="curve" smooth="yes"/>
      <point x="238" y="591"/>
      <point x="280" y="537"/>
    </contour>
  </outline>
</glyph>
<glyph name="uni0E9B" format="2">
  <advance width="696"/>
  <unicode hex="0E9B"/>
  <anchor x="353" y="679" name="top"/>
  <anchor x="356" y="-91" name="bottom"/>
  <outline>
    <contour>
      <point x="624" y="313" type="curve" smooth="yes"/>
      <point x="625" y="297"/>
      <point x="625" y="256"/>
      <point x="625" y="231" type="curve"/>
      <point x="606" y="96"/>
      <point x="519" y="-16"/>
      <point x="378" y="-16" type="curve" smooth="yes"/>
      <point x="272" y="-16"/>
      <point x="143" y="60"/>
      <point x="143" y="179" type="curve" smooth="yes"/>
      <point x="143" y="220"/>
      <point x="158" y="253"/>
      <point x="158" y="286" type="curve" smooth="yes"/>
      <point x="158" y="321"/>
      <point x="164" y="404"/>
      <point x="131" y="409" type="curve" smooth="yes"/>
      <point x="88" y="416"/>
      <point x="58" y="444"/>
      <point x="58" y="490" type="curve" smooth="yes"/>
      <point x="58" y="537"/>
      <point x="81" y="591"/>
      <point x="131" y="591" type="curve" smooth="yes"/>
      <point x="204" y="591"/>
      <point x="246" y="537"/>
      <point x="243" y="378" type="curve" smooth="yes"/>
      <point x="242" y="325"/>
      <point x="243" y="228"/>
      <point x="245" y="192" type="curve"/>
      <point x="245" y="139"/>
      <point x="308" y="96"/>
      <point x="385" y="96" type="curve" smooth="yes"/>
      <point x="479" y="96"/>
      <point x="517" y="154"/>
      <point x="517" y="217" type="curve" smooth="yes"/>
      <point x="517" y="277"/>
      <point x="512" y="325"/>
      <point x="515" y="375" type="curve" smooth="yes"/>
      <point x="517" y="413"/>
      <point x="514" y="443"/>
      <point x="514" y="508" type="curve" smooth="yes"/>
      <point x="514" y="555"/>
      <point x="574" y="692"/>
      <point x="581" y="707" type="curve" smooth="yes"/>
      <point x="602" y="751"/>
      <point x="632" y="747"/>
      <point x="682" y="749" type="curve" smooth="yes"/>
      <point x="710" y="750"/>
      <point x="698" y="732"/>
      <point x="695" y="724" type="curve" smooth="yes"/>
      <point x="662" y="641"/>
      <point x="614" y="615"/>
    </contour>
  </outline>
</glyph>
<glyph name="uni0E9C" format="2">
  <advance width="720"/>
  <unicode hex="0E9C"/>
  <anchor x="410" y="595" name="top"/>
  <anchor x="374" y="-41" name="bottom"/>
  <outline>
    <contour>
      <point x="75" y="364" type="curve" smooth="yes"/>
      <point x="75" y="523"/>
      <point x="114" y="577"/>
      <point x="187" y="577" type="curve" smooth="yes"/>
      <point x="237" y="577"/>
      <point x="260" y="523"/>
      <point x="260" y="476" type="curve" smooth="yes"/>
      <point x="260" y="430"/>
      <point x="213" y="430"/>
      <point x="187" y="395" type="curve" smooth="yes"/>
      <point x="156" y="352"/>
      <point x="166" y="228"/>
      <point x="168" y="192" type="curve"/>
      <point x="168" y="139"/>
      <point x="169" y="93"/>
      <point x="204" y="95" type="curve" smooth="yes"/>
      <point x="290" y="99"/>
      <point x="299" y="114"/>
      <point x="299" y="135" type="curve" smooth="yes"/>
      <point x="299" y="154"/>
      <point x="294" y="151"/>
      <point x="297" y="186" type="curve" smooth="yes"/>
      <point x="299" y="213"/>
      <point x="296" y="217"/>
      <point x="296" y="280" type="curve" smooth="yes"/>
      <point x="296" y="330"/>
      <point x="324" y="320"/>
      <point x="374" y="322" type="curve" smooth="yes"/>
      <point x="402" y="323"/>
      <point x="411" y="264"/>
      <point x="411" y="250" type="curve" smooth="yes"/>
      <point x="411" y="147"/>
      <point x="411" y="364"/>
      <point x="407" y="270" type="curve" smooth="yes"/>
      <point x="406" y="254"/>
      <point x="407" y="255"/>
      <point x="407" y="230" type="curve"/>
      <point x="405" y="100"/>
      <point x="315" y="-17"/>
      <point x="192" y="-17" type="curve" smooth="yes"/>
      <point x="101" y="-17"/>
      <point x="66" y="54"/>
      <point x="66" y="165" type="curve" smooth="yes"/>
      <point x="66" y="203"/>
      <point x="68" y="237"/>
      <point x="69" y="264" type="curve" smooth="yes"/>
      <point x="70" y="288"/>
      <point x="75" y="308"/>
    </contour>
    <contour>
      <point x="299" y="215" type="curve" smooth="yes"/>
      <point x="297" y="278"/>
      <point x="405" y="247"/>
      <point x="407" y="230" type="curve" smooth="yes"/>
      <point x="410" y="209"/>
      <point x="400" y="186"/>
      <point x="399" y="158" type="curve" smooth="yes"/>
      <point x="398" y="114"/>
      <point x="408" y="104"/>
      <point x="494" y="100" type="curve" smooth="yes"/>
      <point x="529" y="98"/>
      <point x="530" y="144"/>
      <point x="530" y="197" type="curve"/>
      <point x="532" y="233"/>
      <point x="542" y="357"/>
      <point x="511" y="400" type="curve" smooth="yes"/>
      <point x="485" y="435"/>
      <point x="438" y="435"/>
      <point x="438" y="481" type="curve" smooth="yes"/>
      <point x="438" y="528"/>
      <point x="461" y="582"/>
      <point x="511" y="582" type="curve" smooth="yes"/>
      <point x="584" y="582"/>
      <point x="623" y="528"/>
      <point x="623" y="369" type="curve" smooth="yes"/>
      <point x="623" y="313"/>
      <point x="628" y="293"/>
      <point x="629" y="269" type="curve" smooth="yes"/>
      <point x="630" y="242"/>
      <point x="632" y="208"/>
      <point x="632" y="170" type="curve" smooth="yes"/>
      <point x="632" y="59"/>
      <point x="598" y="-12"/>
      <point x="509" y="-12" type="curve" smooth="yes"/>
      <point x="389" y="-12"/>
      <point x="303" y="85"/>
    </contour>
    <contour>
      <point x="520" y="394" type="line"/>
      <point x="516" y="442"/>
      <point x="567" y="498"/>
      <point x="581" y="565" type="curve" smooth="yes"/>
      <point x="591" y="614"/>
      <point x="632" y="605"/>
      <point x="682" y="607" type="curve" smooth="yes"/>
      <point x="710" y="608"/>
      <point x="697" y="590"/>
      <point x="695" y="582" type="curve" smooth="yes"/>
      <point x="685" y="539"/>
      <point x="636" y="455"/>
      <point x="623" y="374" type="curve" smooth="yes"/>
      <point x="615" y="322"/>
      <point x="627" y="298"/>
      <point x="630" y="199" type="curve"/>
      <point x="631" y="199" type="line"/>
    </contour>
  </outline>
</glyph>
<glyph name="uni0E9D" format="2">
  <advance width="725"/>
  <unicode hex="0E9D"/>
  <anchor x="464" y="660" name="top"/>
  <anchor x="431" y="-46" name="bottom"/>
  <outline>
    <contour>
      <point x="527" y="216" type="curve" smooth="yes"/>
      <point x="527" y="301"/>
      <point x="531" y="370"/>
      <point x="525" y="439" type="curve" smooth="yes"/>
      <point x="521" y="487"/>
      <point x="533" y="559"/>
      <point x="547" y="626" type="curve" smooth="yes"/>
      <point x="557" y="675"/>
      <point x="598" y="666"/>
      <point x="648" y="668" type="curve" smooth="yes"/>
      <point x="676" y="669"/>
      <point x="663" y="651"/>
      <point x="661" y="643" type="curve" smooth="yes"/>
      <point x="645" y="573"/>
      <point x="626" y="498"/>
      <point x="635" y="244" type="curve" smooth="yes"/>
      <point x="636" y="219"/>
      <point x="635" y="255"/>
      <point x="635" y="230" type="curve"/>
      <point x="616" y="95"/>
      <point x="547" y="-17"/>
      <point x="431" y="-17" type="curve" smooth="yes"/>
      <point x="344" y="-17"/>
      <point x="296" y="65"/>
      <point x="296" y="184" type="curve"/>
      <point x="398" y="197" type="line"/>
      <point x="398" y="144"/>
      <point x="393" y="95"/>
      <point x="442" y="95" type="curve" smooth="yes"/>
      <point x="502" y="95"/>
      <point x="527" y="153"/>
    </contour>
    <contour>
      <point x="72" y="364" type="curve" smooth="yes"/>
      <point x="72" y="523"/>
      <point x="111" y="577"/>
      <point x="184" y="577" type="curve" smooth="yes"/>
      <point x="234" y="577"/>
      <point x="257" y="523"/>
      <point x="257" y="476" type="curve" smooth="yes"/>
      <point x="257" y="430"/>
      <point x="210" y="430"/>
      <point x="184" y="395" type="curve" smooth="yes"/>
      <point x="153" y="352"/>
      <point x="163" y="228"/>
      <point x="165" y="192" type="curve"/>
      <point x="165" y="139"/>
      <point x="166" y="93"/>
      <point x="201" y="95" type="curve" smooth="yes"/>
      <point x="287" y="99"/>
      <point x="296" y="114"/>
      <point x="296" y="135" type="curve" smooth="yes"/>
      <point x="296" y="154"/>
      <point x="291" y="151"/>
      <point x="294" y="186" type="curve" smooth="yes"/>
      <point x="296" y="213"/>
      <point x="293" y="217"/>
      <point x="293" y="280" type="curve" smooth="yes"/>
      <point x="293" y="330"/>
      <point x="321" y="320"/>
      <point x="371" y="322" type="curve" smooth="yes"/>
      <point x="399" y="323"/>
      <point x="408" y="264"/>
      <point x="408" y="250" type="curve" smooth="yes"/>
      <point x="408" y="147"/>
      <point x="408" y="364"/>
      <point x="404" y="270" type="curve" smooth="yes"/>
      <point x="403" y="254"/>
      <point x="404" y="255"/>
      <point x="404" y="230" type="curve"/>
      <point x="402" y="100"/>
      <point x="312" y="-17"/>
      <point x="189" y="-17" type="curve" smooth="yes"/>
      <point x="98" y="-17"/>
      <point x="63" y="54"/>
      <point x="63" y="165" type="curve" smooth="yes"/>
      <point x="63" y="203"/>
      <point x="65" y="237"/>
      <point x="66" y="264" type="curve" smooth="yes"/>
      <point x="67" y="288"/>
      <point x="72" y="308"/>
    </contour>
  </outline>
</glyph>
<glyph name="uni0EA1" format="2">
  <advance width="624"/>
  <unicode hex="0EA1"/>
  <anchor x="351" y="502" name="top"/>
  <anchor x="347" y="-24" name="bottom"/>
  <outline>
    <contour>
      <point x="169.558" y="196.067" type="curve" smooth="yes"/>
      <point x="176.933" y="192.379"/>
      <point x="169.558" y="277.197"/>
      <point x="154.807" y="332.513" type="curve" smooth="yes"/>
      <point x="125.305" y="454.208"/>
      <point x="114.242" y="454.208"/>
      <point x="84.7401" y="443.145" type="curve" smooth="yes"/>
      <point x="81.0523" y="443.145"/>
      <point x="77.3646" y="439.457"/>
      <point x="69.9891" y="443.145" type="curve" smooth="yes"/>
      <point x="44.175" y="457.896"/>
      <point x="125.305" y="531.651"/>
      <point x="158.495" y="531.651" type="curve" smooth="yes"/>
      <point x="269.127" y="531.651"/>
      <point x="276.502" y="244.007"/>
      <point x="276.502" y="192.379" type="curve"/>
      <point x="280.19" y="185.003" type="line" smooth="yes"/>
      <point x="287.566" y="166.565"/>
      <point x="324.443" y="137.063"/>
      <point x="350.257" y="114.936" type="curve"/>
      <point x="353.945" y="111.249"/>
      <point x="372.384" y="103.873"/>
      <point x="379.759" y="103.873" type="curve"/>
      <point x="457.202" y="103.873"/>
      <point x="464.577" y="214.505"/>
      <point x="464.577" y="269.821" type="curve" smooth="yes"/>
      <point x="464.577" y="332.513"/>
      <point x="427.7" y="428.394"/>
      <point x="401.885" y="443.145" type="curve"/>
      <point x="390.822" y="454.208"/>
      <point x="405.573" y="465.271"/>
      <point x="405.573" y="465.271" type="curve"/>
      <point x="427.7" y="491.086"/>
      <point x="460.889" y="520.587"/>
      <point x="497.767" y="524.275" type="curve" smooth="yes"/>
      <point x="545.707" y="527.963"/>
      <point x="556.77" y="402.58"/>
      <point x="560.458" y="373.078" type="curve" smooth="yes"/>
      <point x="564.146" y="332.513"/>
      <point x="564.146" y="277.197"/>
      <point x="560.458" y="240.319" type="curve" smooth="yes"/>
      <point x="549.395" y="144.438"/>
      <point x="490.391" y="-10.4467"/>
      <point x="368.696" y="-6.75898" type="curve" smooth="yes"/>
      <point x="324.443" y="-6.75898"/>
      <point x="280.19" y="22.7429"/>
      <point x="247" y="55.9325" type="curve"/>
      <point x="239.625" y="55.9325" type="line"/>
      <point x="195.372" y="4.30423" type="line" smooth="yes"/>
      <point x="187.997" y="-3.07124"/>
      <point x="169.558" y="-6.75898"/>
      <point x="154.807" y="-6.75898" type="curve" smooth="yes"/>
      <point x="99.491" y="-6.75898"/>
      <point x="73.6769" y="63.308"/>
      <point x="73.6769" y="111.249" type="curve" smooth="yes"/>
      <point x="73.6769" y="173.94"/>
      <point x="128.993" y="207.13"/>
    </contour>
  </outline>
</glyph>
<glyph name="uni0EA2" format="2">
  <advance width="659"/>
  <unicode hex="0EA2"/>
  <anchor x="314" y="646" name="top"/>
  <anchor x="359" y="0" name="bottom"/>
  <outline>
    <contour>
      <point x="580" y="294" type="curve" smooth="yes"/>
      <point x="581" y="269"/>
      <point x="580" y="256"/>
      <point x="580" y="231" type="curve"/>
      <point x="561" y="96"/>
      <point x="472" y="-16"/>
      <point x="329" y="-16" type="curve" smooth="yes"/>
      <point x="221" y="-16"/>
      <point x="90" y="69"/>
      <point x="90" y="185" type="curve" smooth="yes"/>
      <point x="90" y="224"/>
      <point x="129" y="251"/>
      <point x="129" y="282" type="curve" smooth="yes"/>
      <point x="129" y="316"/>
      <point x="82" y="336"/>
      <point x="86" y="409" type="curve"/>
      <point x="86" y="409" type="line"/>
      <point x="86" y="471"/>
      <point x="125" y="560"/>
      <point x="198" y="560" type="curve" smooth="yes"/>
      <point x="248" y="560"/>
      <point x="271" y="506"/>
      <point x="271" y="459" type="curve" smooth="yes"/>
      <point x="271" y="413"/>
      <point x="241" y="386"/>
      <point x="198" y="378" type="curve"/>
      <point x="214" y="324"/>
      <point x="296" y="347"/>
      <point x="287" y="312" type="curve" smooth="yes"/>
      <point x="261" y="212"/>
      <point x="202" y="262"/>
      <point x="202" y="220" type="curve" smooth="yes"/>
      <point x="202" y="150"/>
      <point x="275" y="96"/>
      <point x="341" y="96" type="curve" smooth="yes"/>
      <point x="434" y="96"/>
      <point x="472" y="177"/>
      <point x="472" y="266" type="curve" smooth="yes"/>
      <point x="472" y="351"/>
      <point x="476" y="420"/>
      <point x="470" y="489" type="curve" smooth="yes"/>
      <point x="466" y="537"/>
      <point x="478" y="609"/>
      <point x="492" y="676" type="curve" smooth="yes"/>
      <point x="502" y="725"/>
      <point x="543" y="716"/>
      <point x="593" y="718" type="curve" smooth="yes"/>
      <point x="621" y="719"/>
      <point x="608" y="701"/>
      <point x="606" y="693" type="curve" smooth="yes"/>
      <point x="590" y="623"/>
      <point x="571" y="548"/>
    </contour>
  </outline>
</glyph>
<glyph name="uni0EA3" format="2">
  <advance width="608"/>
  <unicode hex="0EA3"/>
  <anchor x="309" y="531" name="top"/>
  <anchor x="309" y="-20" name="bottom"/>
  <outline>
    <contour>
      <point x="543" y="462" type="curve" smooth="yes"/>
      <point x="543" y="471"/>
      <point x="539" y="475"/>
      <point x="530" y="475" type="curve" smooth="yes"/>
      <point x="495" y="475"/>
      <point x="459" y="490"/>
      <point x="425" y="498" type="curve" smooth="yes"/>
      <point x="355" y="515"/>
      <point x="290" y="563"/>
      <point x="216" y="563" type="curve" smooth="yes"/>
      <point x="142" y="563"/>
      <point x="70" y="538"/>
      <point x="70" y="451" type="curve" smooth="yes"/>
      <point x="70" y="313"/>
      <point x="425" y="309"/>
      <point x="425" y="174" type="curve" smooth="yes"/>
      <point x="425" y="122"/>
      <point x="315" y="57"/>
      <point x="268" y="57" type="curve" smooth="yes"/>
      <point x="236" y="57"/>
      <point x="176" y="81"/>
      <point x="182" y="89" type="curve" smooth="yes"/>
      <point x="195" y="107"/>
      <point x="234" y="117"/>
      <point x="234" y="164" type="curve" smooth="yes"/>
      <point x="234" y="212"/>
      <point x="195" y="261"/>
      <point x="145" y="261" type="curve" smooth="yes"/>
      <point x="100" y="261"/>
      <point x="72" y="182"/>
      <point x="72" y="145" type="curve" smooth="yes"/>
      <point x="72" y="110"/>
      <point x="94" y="73"/>
      <point x="119" y="50" type="curve" smooth="yes"/>
      <point x="176" y="-2"/>
      <point x="221" y="-38"/>
      <point x="302" y="-38" type="curve" smooth="yes"/>
      <point x="380" y="-38"/>
      <point x="416" y="-20"/>
      <point x="476" y="28" type="curve" smooth="yes"/>
      <point x="511" y="56"/>
      <point x="548" y="99"/>
      <point x="548" y="147" type="curve" smooth="yes"/>
      <point x="548" y="204"/>
      <point x="532" y="263"/>
      <point x="477" y="289" type="curve" smooth="yes"/>
      <point x="442" y="306"/>
      <point x="403" y="319"/>
      <point x="366" y="331" type="curve" smooth="yes"/>
      <point x="324" y="345"/>
      <point x="185" y="379"/>
      <point x="185" y="436" type="curve" smooth="yes"/>
      <point x="185" y="457"/>
      <point x="227" y="468"/>
      <point x="243" y="468" type="curve" smooth="yes"/>
      <point x="330" y="468"/>
      <point x="404" y="407"/>
      <point x="491" y="407" type="curve" smooth="yes"/>
      <point x="526" y="407"/>
      <point x="543" y="428"/>
    </contour>
  </outline>
</glyph>
<glyph name="uni0EA5" format="2">
  <advance width="584"/>
  <unicode hex="0EA5"/>
  <anchor x="294" y="560" name="top"/>
  <anchor x="294" y="0" name="bottom"/>
  <outline>
    <contour>
      <point x="186" y="482" type="move"/>
      <point x="186" y="482"/>
      <point x="186" y="481"/>
      <point x="186" y="481" type="curve"/>
    </contour>
    <contour>
      <point x="138" y="400" type="curve" smooth="yes"/>
      <point x="134" y="393"/>
      <point x="63" y="401"/>
      <point x="63" y="428" type="curve" smooth="yes"/>
      <point x="63" y="450"/>
      <point x="71" y="462"/>
      <point x="105" y="502" type="curve" smooth="yes"/>
      <point x="120" y="520"/>
      <point x="187" y="575"/>
      <point x="262" y="575" type="curve" smooth="yes"/>
      <point x="303" y="575"/>
      <point x="331" y="571"/>
      <point x="367" y="555" type="curve" smooth="yes"/>
      <point x="449" y="519"/>
      <point x="513" y="436"/>
      <point x="525" y="329" type="curve" smooth="yes"/>
      <point x="552" y="84"/>
      <point x="516" y="-10"/>
      <point x="468" y="-10" type="curve" smooth="yes"/>
      <point x="466" y="-10"/>
      <point x="463" y="-10"/>
      <point x="460" y="-10" type="curve"/>
      <point x="334" y="-12"/>
      <point x="334" y="92"/>
      <point x="315" y="161" type="curve" smooth="yes"/>
      <point x="305" y="198"/>
      <point x="288" y="223"/>
      <point x="245" y="223" type="curve" smooth="yes"/>
      <point x="207" y="223"/>
      <point x="186" y="202"/>
      <point x="186" y="166" type="curve" smooth="yes"/>
      <point x="186" y="106"/>
      <point x="231" y="146"/>
      <point x="250" y="85" type="curve" smooth="yes"/>
      <point x="263" y="42"/>
      <point x="223" y="-8"/>
      <point x="166" y="-8" type="curve" smooth="yes"/>
      <point x="86" y="-8"/>
      <point x="86" y="53"/>
      <point x="86" y="106" type="curve" smooth="yes"/>
      <point x="86" y="155"/>
      <point x="84" y="109"/>
      <point x="84" y="146" type="curve" smooth="yes"/>
      <point x="84" y="209"/>
      <point x="151" y="316"/>
      <point x="243" y="314" type="curve" smooth="yes"/>
      <point x="369" y="311"/>
      <point x="402" y="150"/>
      <point x="405" y="143" type="curve" smooth="yes"/>
      <point x="470" y="-5"/>
      <point x="449" y="229"/>
      <point x="447" y="274" type="curve" smooth="yes"/>
      <point x="446" y="294"/>
      <point x="437" y="338"/>
      <point x="422" y="390" type="curve" smooth="yes"/>
      <point x="382" y="528"/>
      <point x="207" y="528"/>
    </contour>
  </outline>
</glyph>
<glyph name="uni0EA7" format="2">
  <advance width="568"/>
  <unicode hex="0EA7"/>
  <anchor x="281" y="488" name="top"/>
  <anchor x="283" y="0" name="bottom"/>
  <outline>
    <contour>
      <point x="60.055" y="408.008" type="line"/>
      <point x="60.055" y="489.078"/>
      <point x="222.195" y="533.298"/>
      <point x="281.155" y="533.298" type="curve" smooth="yes"/>
      <point x="424.869" y="533.298"/>
      <point x="502.254" y="374.843"/>
      <point x="502.254" y="249.553" type="curve" smooth="yes"/>
      <point x="502.254" y="105.838"/>
      <point x="417.499" y="-19.4515"/>
      <point x="270.1" y="-19.4515" type="curve" smooth="yes"/>
      <point x="174.29" y="-19.4515"/>
      <point x="49" y="46.8784"/>
      <point x="49" y="164.798" type="curve" smooth="yes"/>
      <point x="49" y="212.703"/>
      <point x="89.5349" y="271.663"/>
      <point x="137.44" y="271.663" type="curve" smooth="yes"/>
      <point x="170.605" y="271.663"/>
      <point x="196.4" y="234.813"/>
      <point x="196.4" y="197.963" type="curve" smooth="yes"/>
      <point x="196.4" y="164.798"/>
      <point x="177.975" y="164.798"/>
      <point x="166.92" y="139.003" type="curve" smooth="yes"/>
      <point x="155.865" y="116.893"/>
      <point x="251.675" y="76.3583"/>
      <point x="262.73" y="76.3583" type="curve" smooth="yes"/>
      <point x="358.54" y="76.3583"/>
      <point x="421.184" y="153.743"/>
      <point x="421.184" y="242.183" type="curve" smooth="yes"/>
      <point x="421.184" y="334.308"/>
      <point x="388.02" y="444.858"/>
      <point x="288.525" y="444.858" type="curve" smooth="yes"/>
      <point x="225.88" y="444.858"/>
      <point x="185.345" y="352.733"/>
      <point x="126.385" y="352.733" type="curve" smooth="yes"/>
      <point x="100.59" y="352.733"/>
      <point x="60.055" y="382.213"/>
      <point x="60.055" y="408.008" type="curve"/>
    </contour>
  </outline>
</glyph>
<glyph name="uni0EAA" format="2">
  <advance width="575"/>
  <unicode hex="0EAA"/>
  <anchor x="274" y="509" name="top"/>
  <anchor x="293" y="14" name="bottom"/>
  <outline>
    <contour>
      <point x="236" y="538" type="curve" smooth="yes"/>
      <point x="82" y="537"/>
      <point x="66" y="458"/>
      <point x="66" y="437" type="curve" smooth="yes"/>
      <point x="66" y="407"/>
      <point x="67" y="318"/>
      <point x="232" y="311" type="curve" smooth="yes"/>
      <point x="272" y="309"/>
      <point x="312" y="312"/>
      <point x="353" y="324" type="curve" smooth="yes"/>
      <point x="439" y="350"/>
      <point x="549" y="403"/>
      <point x="512" y="538" type="curve" smooth="yes"/>
      <point x="504" y="567"/>
      <point x="409" y="570"/>
      <point x="409" y="554" type="curve" smooth="yes"/>
      <point x="409" y="527"/>
      <point x="415" y="512"/>
      <point x="409" y="487" type="curve" smooth="yes"/>
      <point x="368" y="324"/>
      <point x="165" y="385"/>
      <point x="163" y="427" type="curve" smooth="yes"/>
      <point x="160" y="483"/>
      <point x="365" y="528"/>
      <point x="405" y="390" type="curve" smooth="yes"/>
      <point x="420" y="338"/>
      <point x="430" y="301"/>
      <point x="430" y="247" type="curve" smooth="yes"/>
      <point x="430" y="190"/>
      <point x="443" y="85"/>
      <point x="412" y="85" type="curve" smooth="yes"/>
      <point x="392" y="85"/>
      <point x="397" y="94"/>
      <point x="397" y="100" type="curve" smooth="yes"/>
      <point x="397" y="119"/>
      <point x="392" y="126"/>
      <point x="392" y="157" type="curve" smooth="yes"/>
      <point x="392" y="208"/>
      <point x="343" y="287"/>
      <point x="228" y="287" type="curve" smooth="yes"/>
      <point x="135" y="287"/>
      <point x="67" y="196"/>
      <point x="67" y="141" type="curve" smooth="yes"/>
      <point x="67" y="109"/>
      <point x="69" y="155"/>
      <point x="69" y="106" type="curve" smooth="yes"/>
      <point x="69" y="53"/>
      <point x="69" y="-8"/>
      <point x="149" y="-8" type="curve" smooth="yes"/>
      <point x="206" y="-8"/>
      <point x="230" y="42"/>
      <point x="233" y="85" type="curve" smooth="yes"/>
      <point x="238" y="142"/>
      <point x="179" y="137"/>
      <point x="169" y="166" type="curve" smooth="yes"/>
      <point x="157" y="200"/>
      <point x="190" y="223"/>
      <point x="228" y="223" type="curve" smooth="yes"/>
      <point x="271" y="223"/>
      <point x="298" y="203"/>
      <point x="298" y="161" type="curve" smooth="yes"/>
      <point x="298" y="91"/>
      <point x="317" y="-12"/>
      <point x="443" y="-10" type="curve"/>
      <point x="446" y="-10"/>
      <point x="449" y="-10"/>
      <point x="451" y="-10" type="curve"/>
      <point x="499" y="-10"/>
      <point x="508" y="60"/>
      <point x="508" y="283" type="curve" smooth="yes"/>
      <point x="508" y="410"/>
      <point x="443" y="499"/>
      <point x="357" y="525" type="curve" smooth="yes"/>
      <point x="316" y="537"/>
      <point x="277" y="538"/>
    </contour>
  </outline>
</glyph>
<glyph name="uni0EAB" format="2">
  <advance width="753"/>
  <unicode hex="0EAB"/>
  <anchor x="554" y="473" name="top"/>
  <anchor x="535" y="-15" name="bottom"/>
  <outline>
    <contour>
      <point x="63" y="414.553" type="line"/>
      <point x="63" y="463.956"/>
      <point x="93.4014" y="524.759"/>
      <point x="146.604" y="524.759" type="curve" smooth="yes"/>
      <point x="207.407" y="524.759"/>
      <point x="230.208" y="452.555"/>
      <point x="230.208" y="399.353" type="curve" smooth="yes"/>
      <point x="230.208" y="349.95"/>
      <point x="207.407" y="289.147"/>
      <point x="196.006" y="247.345" type="curve"/>
      <point x="196.006" y="243.545"/>
      <point x="196.006" y="224.544"/>
      <point x="196.006" y="216.944" type="curve"/>
      <point x="196.006" y="182.742"/>
      <point x="211.207" y="95.3382"/>
      <point x="264.41" y="95.3382" type="curve" smooth="yes"/>
      <point x="329.013" y="95.3382"/>
      <point x="321.412" y="205.543"/>
      <point x="321.412" y="243.545" type="curve" smooth="yes"/>
      <point x="321.412" y="319.549"/>
      <point x="306.212" y="380.352"/>
      <point x="283.411" y="452.555" type="curve"/>
      <point x="283.411" y="452.555"/>
      <point x="283.411" y="460.156"/>
      <point x="283.411" y="460.156" type="curve"/>
      <point x="283.411" y="486.757"/>
      <point x="321.412" y="520.958"/>
      <point x="348.014" y="520.958" type="curve" smooth="yes"/>
      <point x="378.415" y="520.958"/>
      <point x="397.416" y="460.156"/>
      <point x="405.016" y="444.955" type="curve"/>
      <point x="408.816" y="444.955" type="line"/>
      <point x="439.218" y="486.757"/>
      <point x="481.02" y="524.759"/>
      <point x="534.222" y="524.759" type="curve" smooth="yes"/>
      <point x="663.429" y="524.759"/>
      <point x="686.23" y="361.351"/>
      <point x="686.23" y="266.346" type="curve" smooth="yes"/>
      <point x="686.23" y="213.144"/>
      <point x="693.83" y="-14.8671"/>
      <point x="617.826" y="-14.8671" type="curve" smooth="yes"/>
      <point x="587.425" y="-14.8671"/>
      <point x="530.422" y="26.9349"/>
      <point x="530.422" y="57.3363" type="curve" smooth="yes"/>
      <point x="530.422" y="133.34"/>
      <point x="579.825" y="205.543"/>
      <point x="579.825" y="285.347" type="curve"/>
      <point x="579.825" y="292.948"/>
      <point x="579.825" y="319.549"/>
      <point x="579.825" y="323.349" type="curve"/>
      <point x="572.224" y="365.151"/>
      <point x="541.823" y="429.754"/>
      <point x="492.42" y="429.754" type="curve" smooth="yes"/>
      <point x="462.019" y="429.754"/>
      <point x="424.017" y="406.953"/>
      <point x="424.017" y="372.751" type="curve" smooth="yes"/>
      <point x="424.017" y="330.949"/>
      <point x="431.618" y="292.948"/>
      <point x="431.618" y="247.345" type="curve" smooth="yes"/>
      <point x="431.618" y="137.14"/>
      <point x="386.015" y="-14.8671"/>
      <point x="249.209" y="-14.8671" type="curve" smooth="yes"/>
      <point x="142.804" y="-14.8671"/>
      <point x="97.2016" y="91.538"/>
      <point x="97.2016" y="186.543" type="curve" smooth="yes"/>
      <point x="97.2016" y="235.945"/>
      <point x="123.803" y="281.547"/>
      <point x="123.803" y="330.949" type="curve" smooth="yes"/>
      <point x="123.803" y="346.15"/>
      <point x="63" y="368.951"/>
      <point x="63" y="414.553" type="curve"/>
    </contour>
  </outline>
</glyph>
<glyph name="uni0EAD" format="2">
  <advance width="608"/>
  <unicode hex="0EAD"/>
  <anchor x="374" y="549" name="top"/>
  <anchor x="295" y="-13" name="bottom"/>
  <outline>
    <contour>
      <point x="53" y="391.454" type="curve" smooth="yes"/>
      <point x="53" y="497.851"/>
      <point x="224.872" y="571.511"/>
      <point x="314.901" y="571.511" type="curve" smooth="yes"/>
      <point x="466.312" y="571.511"/>
      <point x="539.972" y="432.376"/>
      <point x="539.972" y="289.149" type="curve" smooth="yes"/>
      <point x="539.972" y="133.646"/>
      <point x="462.22" y="-17.7658"/>
      <point x="294.44" y="-17.7658" type="curve" smooth="yes"/>
      <point x="220.78" y="-17.7658"/>
      <point x="57.0922" y="19.064"/>
      <point x="57.0922" y="117.277" type="curve" smooth="yes"/>
      <point x="57.0922" y="182.752"/>
      <point x="134.844" y="227.766"/>
      <point x="192.135" y="227.766" type="curve"/>
      <point x="224.872" y="207.305"/>
      <point x="212.596" y="145.922"/>
      <point x="196.227" y="117.277" type="curve" smooth="yes"/>
      <point x="188.043" y="100.908"/>
      <point x="208.504" y="96.8158"/>
      <point x="233.057" y="92.7236" type="curve" smooth="yes"/>
      <point x="265.794" y="88.6314"/>
      <point x="318.993" y="84.5392"/>
      <point x="351.731" y="92.7236" type="curve" smooth="yes"/>
      <point x="392.653" y="105"/>
      <point x="437.667" y="178.66"/>
      <point x="445.851" y="235.951" type="curve"/>
      <point x="441.759" y="235.951" type="line"/>
      <point x="400.837" y="235.951"/>
      <point x="359.915" y="215.49"/>
      <point x="318.993" y="215.49" type="curve" smooth="yes"/>
      <point x="224.872" y="215.49"/>
      <point x="53" y="276.873"/>
    </contour>
    <contour>
      <point x="143.028" y="424.192" type="curve" smooth="yes"/>
      <point x="143.028" y="280.965"/>
      <point x="339.454" y="301.426"/>
      <point x="413.114" y="301.426" type="curve"/>
      <point x="417.206" y="301.426"/>
      <point x="445.851" y="301.426"/>
      <point x="445.851" y="313.702" type="curve" smooth="yes"/>
      <point x="445.851" y="416.007"/>
      <point x="429.482" y="461.022"/>
      <point x="286.255" y="477.39" type="curve" smooth="yes"/>
      <point x="237.149" y="481.483"/>
      <point x="143.028" y="461.022"/>
    </contour>
  </outline>
</glyph>
<glyph name="uni0EAF" format="2">
  <advance width="586"/>
  <unicode hex="0EAF"/>
  <outline>
    <contour>
      <point x="336" y="334" type="curve"/>
      <point x="241" y="307"/>
      <point x="50" y="322"/>
      <point x="32" y="462" type="curve" smooth="yes"/>
      <point x="20" y="560"/>
      <point x="112" y="594"/>
      <point x="175" y="591" type="curve" smooth="yes"/>
      <point x="237" y="589"/>
      <point x="265" y="556"/>
      <point x="263" y="521" type="curve" smooth="yes"/>
      <point x="262" y="487"/>
      <point x="251" y="440"/>
      <point x="183" y="440" type="curve" smooth="yes"/>
      <point x="122" y="440"/>
      <point x="91" y="469"/>
      <point x="113" y="523" type="curve"/>
      <point x="108" y="517"/>
      <point x="98" y="513"/>
      <point x="96" y="501" type="curve" smooth="yes"/>
      <point x="88" y="434"/>
      <point x="169" y="420"/>
      <point x="207" y="420" type="curve" smooth="yes"/>
      <point x="230" y="420"/>
      <point x="269" y="420"/>
      <point x="293" y="423" type="curve" smooth="yes"/>
      <point x="397" y="437"/>
      <point x="439" y="450"/>
      <point x="530" y="511" type="curve"/>
      <point x="508" y="426"/>
      <point x="464" y="360"/>
      <point x="433" y="306" type="curve" smooth="yes"/>
      <point x="406" y="260"/>
      <point x="374" y="212"/>
      <point x="336" y="157" type="curve"/>
      <point x="311" y="114"/>
      <point x="270" y="51"/>
      <point x="218" y="1" type="curve" smooth="yes"/>
      <point x="180" y="-34"/>
      <point x="151" y="-2"/>
      <point x="107" y="26" type="curve" smooth="yes"/>
      <point x="82" y="42"/>
      <point x="104" y="49"/>
      <point x="110" y="55" type="curve" smooth="yes"/>
      <point x="167" y="106"/>
      <point x="186" y="127"/>
    </contour>
  </outline>
</glyph>
<glyph name="uni0EB0" format="2">
  <advance width="349"/>
  <unicode hex="0EB0"/>
  <outline>
    <contour>
      <point x="102" y="514" type="curve"/>
      <point x="56" y="514"/>
      <point x="28" y="464"/>
      <point x="27" y="419" type="curve" smooth="yes"/>
      <point x="26" y="329"/>
      <point x="100" y="275"/>
      <point x="166" y="275" type="curve" smooth="yes"/>
      <point x="245" y="275"/>
      <point x="315" y="355"/>
      <point x="313" y="423" type="curve" smooth="yes"/>
      <point x="313" y="437"/>
      <point x="312" y="451"/>
      <point x="297" y="468" type="curve" smooth="yes"/>
      <point x="287" y="480"/>
      <point x="220" y="436"/>
      <point x="222" y="429" type="curve" smooth="yes"/>
      <point x="229" y="396"/>
      <point x="237" y="365"/>
      <point x="206" y="360" type="curve" smooth="yes"/>
      <point x="179" y="356"/>
      <point x="155" y="373"/>
      <point x="141" y="387" type="curve"/>
      <point x="193" y="423"/>
      <point x="172" y="515"/>
    </contour>
    <contour>
      <point x="120" y="244" type="curve"/>
      <point x="74" y="244"/>
      <point x="44" y="179"/>
      <point x="44" y="134" type="curve" smooth="yes"/>
      <point x="43" y="37"/>
      <point x="104" y="-9"/>
      <point x="176" y="-9" type="curve" smooth="yes"/>
      <point x="255" y="-9"/>
      <point x="325" y="71"/>
      <point x="323" y="139" type="curve" smooth="yes"/>
      <point x="323" y="153"/>
      <point x="325" y="183"/>
      <point x="310" y="200" type="curve" smooth="yes"/>
      <point x="300" y="212"/>
      <point x="235" y="157"/>
      <point x="236" y="150" type="curve" smooth="yes"/>
      <point x="240" y="112"/>
      <point x="241" y="83"/>
      <point x="214" y="80" type="curve" smooth="yes"/>
      <point x="187" y="77"/>
      <point x="165" y="89"/>
      <point x="151" y="103" type="curve"/>
      <point x="212" y="145"/>
      <point x="194" y="246"/>
    </contour>
  </outline>
</glyph>
<glyph name="uni0EB3" format="2">
  <advance width="315"/>
  <unicode hex="0EB3"/>
  <anchor x="-196" y="827" name="tonemark"/>
  <outline>
    <contour>
      <point x="173" y="1" type="curve"/>
      <point x="171" y="0" type="line"/>
      <point x="154" y="1"/>
      <point x="64" y="51"/>
      <point x="64" y="67" type="curve"/>
      <point x="64" y="68"/>
      <point x="65" y="69"/>
      <point x="65" y="70" type="curve"/>
      <point x="126" y="156"/>
      <point x="140" y="196"/>
      <point x="156" y="294" type="curve" smooth="yes"/>
      <point x="160" y="317"/>
      <point x="161" y="354"/>
      <point x="162" y="376" type="curve" smooth="yes"/>
      <point x="163" y="412"/>
      <point x="151" y="491"/>
      <point x="88" y="484" type="curve" smooth="yes"/>
      <point x="76" y="483"/>
      <point x="72" y="473"/>
      <point x="66" y="469" type="curve"/>
      <point x="118" y="487"/>
      <point x="145" y="458"/>
      <point x="143" y="399" type="curve" smooth="yes"/>
      <point x="141" y="335"/>
      <point x="96" y="326"/>
      <point x="64" y="326" type="curve" smooth="yes"/>
      <point x="30" y="326"/>
      <point x="0" y="352"/>
      <point x="-1" y="411" type="curve" smooth="yes"/>
      <point x="-2" y="471"/>
      <point x="33" y="559"/>
      <point x="126" y="544" type="curve" smooth="yes"/>
      <point x="259" y="522"/>
      <point x="259" y="347"/>
      <point x="258" y="280" type="curve" smooth="yes"/>
      <point x="255" y="118"/>
      <point x="216" y="67"/>
    </contour>
    <contour>
      <point x="-288" y="705" type="curve" smooth="yes"/>
      <point x="-288" y="727"/>
      <point x="-282" y="776"/>
      <point x="-220" y="776" type="curve" smooth="yes"/>
      <point x="-158" y="776"/>
      <point x="-164" y="727"/>
      <point x="-164" y="700" type="curve" smooth="yes"/>
      <point x="-164" y="684"/>
      <point x="-164" y="629"/>
      <point x="-226" y="629" type="curve" smooth="yes"/>
      <point x="-288" y="629"/>
      <point x="-288" y="684"/>
    </contour>
  </outline>
</glyph>
<glyph name="uni0EB5" format="2">
  <advance width="20"/>
  <unicode hex="0EB5"/>
  <anchor x="-251" y="553" name="_top"/>
  <anchor x="-206" y="850" name="tonemark"/>
  <outline>
    <contour>
      <point x="-292" y="663" type="curve" smooth="yes"/>
      <point x="-290" y="660"/>
      <point x="-296" y="658"/>
      <point x="-296" y="655" type="curve" smooth="yes"/>
      <point x="-298" y="642"/>
      <point x="-349" y="637"/>
      <point x="-385" y="636" type="curve" smooth="yes"/>
      <point x="-445" y="635"/>
      <point x="-472" y="684"/>
      <point x="-470" y="736" type="curve" smooth="yes"/>
      <point x="-466" y="826"/>
      <point x="-337" y="840"/>
      <point x="-239" y="840" type="curve" smooth="yes"/>
      <point x="-190" y="840"/>
      <point x="-162" y="841"/>
      <point x="-119" y="803" type="curve" smooth="yes"/>
      <point x="-94" y="781"/>
      <point x="-94" y="734"/>
      <point x="-81" y="725" type="curve" smooth="yes"/>
      <point x="-68" y="716"/>
      <point x="-47" y="725"/>
      <point x="-26" y="732" type="curve" smooth="yes"/>
      <point x="-21" y="734"/>
      <point x="-16" y="729"/>
      <point x="-21" y="719" type="curve" smooth="yes"/>
      <point x="-54" y="644"/>
      <point x="-99" y="629"/>
      <point x="-151" y="631" type="curve" smooth="yes"/>
      <point x="-185" y="632"/>
      <point x="-228" y="637"/>
      <point x="-239" y="648" type="curve"/>
      <point x="-228" y="666"/>
      <point x="-191" y="676"/>
      <point x="-192" y="709" type="curve" smooth="yes"/>
      <point x="-194" y="770"/>
      <point x="-232" y="790"/>
      <point x="-280" y="796" type="curve" smooth="yes"/>
      <point x="-320" y="801"/>
      <point x="-360" y="770"/>
      <point x="-360" y="729" type="curve" smooth="yes"/>
      <point x="-360" y="697"/>
      <point x="-329" y="680"/>
      <point x="-306" y="674" type="curve" smooth="yes"/>
      <point x="-302" y="673"/>
      <point x="-295" y="668"/>
    </contour>
  </outline>
</glyph>
<glyph name="uni0EB8" format="2">
  <unicode hex="0EB8"/>
  <anchor x="-246" y="0" name="_bottom"/>
  <anchor x="-246" y="12" name="_lvowel"/>
  <outline>
    <contour>
      <point x="-316" y="-155" type="curve"/>
      <point x="-316" y="-114"/>
      <point x="-289" y="-68"/>
      <point x="-246" y="-68" type="curve" smooth="yes"/>
      <point x="-204" y="-68"/>
      <point x="-181" y="-114"/>
      <point x="-181" y="-156" type="curve" smooth="yes"/>
      <point x="-181" y="-219"/>
      <point x="-231" y="-250"/>
      <point x="-281" y="-280" type="curve" smooth="yes"/>
      <point x="-283" y="-281"/>
      <point x="-283" y="-275"/>
      <point x="-281" y="-272" type="curve" smooth="yes"/>
      <point x="-266" y="-250"/>
      <point x="-253" y="-234"/>
      <point x="-253" y="-205" type="curve"/>
      <point x="-264" y="-203"/>
      <point x="-268" y="-207"/>
      <point x="-275" y="-207" type="curve" smooth="yes"/>
      <point x="-293" y="-207"/>
      <point x="-316" y="-196"/>
    </contour>
  </outline>
</glyph>
<glyph name="uni0EB9" format="2">
  <advance width="-93"/>
  <unicode hex="0EB9"/>
  <anchor x="-295" y="0" name="_bottom"/>
  <anchor x="-295" y="13" name="_lvowel"/>
  <outline>
    <contour>
      <point x="-312" y="-142" type="curve" smooth="yes"/>
      <point x="-314" y="-100"/>
      <point x="-335" y="-54"/>
      <point x="-377" y="-54" type="curve" smooth="yes"/>
      <point x="-420" y="-54"/>
      <point x="-447" y="-100"/>
      <point x="-447" y="-141" type="curve" smooth="yes"/>
      <point x="-447" y="-182"/>
      <point x="-424" y="-193"/>
      <point x="-406" y="-193" type="curve" smooth="yes"/>
      <point x="-399" y="-193"/>
      <point x="-395" y="-189"/>
      <point x="-384" y="-191" type="curve"/>
      <point x="-384" y="-220"/>
      <point x="-377" y="-268"/>
      <point x="-331" y="-266" type="curve" smooth="yes"/>
      <point x="-310" y="-265"/>
      <point x="-265" y="-267"/>
      <point x="-245" y="-264" type="curve" smooth="yes"/>
      <point x="-203" y="-258"/>
      <point x="-196" y="-244"/>
      <point x="-178" y="-222" type="curve" smooth="yes"/>
      <point x="-159" y="-199"/>
      <point x="-164" y="-91"/>
      <point x="-151" y="-54" type="curve" smooth="yes"/>
      <point x="-141" y="-25"/>
      <point x="-213" y="-47"/>
      <point x="-227" y="-53" type="curve" smooth="yes"/>
      <point x="-248" y="-62"/>
      <point x="-227" y="-201"/>
      <point x="-263" y="-201" type="curve" smooth="yes"/>
      <point x="-293" y="-201"/>
      <point x="-309" y="-198"/>
    </contour>
  </outline>
</glyph>
<glyph name="uni0EBD" format="2">
  <advance width="574"/>
  <unicode hex="0EBD"/>
  <outline>
    <contour>
      <point x="133.113" y="330.063" type="line"/>
      <point x="133.113" y="404.95"/>
      <point x="184.351" y="527.133"/>
      <point x="267.12" y="527.133" type="curve" smooth="yes"/>
      <point x="310.476" y="527.133"/>
      <point x="342.007" y="511.368"/>
      <point x="381.421" y="491.661" type="curve"/>
      <point x="381.421" y="491.661"/>
      <point x="393.245" y="491.661"/>
      <point x="401.128" y="491.661" type="curve"/>
      <point x="424.776" y="491.661"/>
      <point x="456.308" y="554.723"/>
      <point x="472.073" y="554.723" type="curve"/>
      <point x="432.659" y="468.012" type="line" smooth="yes"/>
      <point x="416.894" y="436.481"/>
      <point x="389.304" y="389.184"/>
      <point x="349.89" y="389.184" type="curve" smooth="yes"/>
      <point x="314.417" y="389.184"/>
      <point x="278.945" y="424.657"/>
      <point x="231.648" y="424.657" type="curve"/>
      <point x="223.765" y="424.657"/>
      <point x="204.058" y="420.715"/>
      <point x="204.058" y="408.891" type="curve"/>
      <point x="204.058" y="404.95"/>
      <point x="204.058" y="401.008"/>
      <point x="207.999" y="401.008" type="curve"/>
      <point x="377.48" y="341.887"/>
      <point x="476.015" y="199.997"/>
      <point x="476.015" y="18.6926" type="curve" smooth="yes"/>
      <point x="476.015" y="-87.7252"/>
      <point x="409.011" y="-229.616"/>
      <point x="282.886" y="-229.616" type="curve" smooth="yes"/>
      <point x="188.292" y="-229.616"/>
      <point x="113.406" y="-142.905"/>
      <point x="113.406" y="-52.2526" type="curve" smooth="yes"/>
      <point x="113.406" y="-1.0144"/>
      <point x="140.996" y="50.2238"/>
      <point x="196.175" y="50.2238" type="curve" smooth="yes"/>
      <point x="239.531" y="50.2238"/>
      <point x="263.179" y="14.7512"/>
      <point x="263.179" y="-28.6042" type="curve" smooth="yes"/>
      <point x="263.179" y="-44.3698"/>
      <point x="247.413" y="-60.1354"/>
      <point x="247.413" y="-79.8424" type="curve" smooth="yes"/>
      <point x="247.413" y="-91.6666"/>
      <point x="282.886" y="-91.6666"/>
      <point x="286.827" y="-91.6666" type="curve"/>
      <point x="357.773" y="-91.6666"/>
      <point x="349.89" y="-12.8386"/>
      <point x="349.89" y="34.4582" type="curve" smooth="yes"/>
      <point x="349.89" y="105.403"/>
      <point x="318.359" y="211.821"/>
      <point x="247.413" y="247.294" type="curve" smooth="yes"/>
      <point x="152.82" y="294.591" type="line" smooth="yes"/>
      <point x="137.054" y="302.473"/>
      <point x="133.113" y="318.239"/>
      <point x="133.113" y="330.063" type="curve"/>
    </contour>
  </outline>
</glyph>
<glyph name="uni0EC0" format="2">
  <advance width="274"/>
  <unicode hex="0EC0"/>
  <outline>
    <contour>
      <point x="169" y="538" type="curve" smooth="yes"/>
      <point x="24" y="474"/>
      <point x="31" y="347"/>
      <point x="26" y="272" type="curve" smooth="yes"/>
      <point x="17" y="127"/>
      <point x="83" y="-6"/>
      <point x="140" y="-7" type="curve" smooth="yes"/>
      <point x="184" y="-8"/>
      <point x="217" y="45"/>
      <point x="217" y="93" type="curve" smooth="yes"/>
      <point x="217" y="164"/>
      <point x="175" y="216"/>
      <point x="136" y="186" type="curve"/>
      <point x="85" y="241"/>
      <point x="112" y="455"/>
      <point x="141" y="455" type="curve" smooth="yes"/>
      <point x="166" y="455"/>
      <point x="171" y="427"/>
      <point x="171" y="406" type="curve"/>
      <point x="205" y="432"/>
      <point x="216" y="442"/>
      <point x="245" y="470" type="curve"/>
      <point x="252" y="502"/>
      <point x="197" y="551"/>
    </contour>
  </outline>
</glyph>
<glyph name="uni0EC1" format="2">
  <advance width="527"/>
  <unicode hex="0EC1"/>
  <outline>
    <contour>
      <point x="176" y="538" type="curve" smooth="yes"/>
      <point x="33" y="474"/>
      <point x="39" y="347"/>
      <point x="35" y="272" type="curve" smooth="yes"/>
      <point x="26" y="127"/>
      <point x="91" y="-6"/>
      <point x="148" y="-7" type="curve" smooth="yes"/>
      <point x="192" y="-8"/>
      <point x="225" y="45"/>
      <point x="225" y="93" type="curve" smooth="yes"/>
      <point x="225" y="163"/>
      <point x="183" y="216"/>
      <point x="144" y="186" type="curve"/>
      <point x="93" y="240"/>
      <point x="119" y="454"/>
      <point x="149" y="454" type="curve" smooth="yes"/>
      <point x="173" y="454"/>
      <point x="179" y="427"/>
      <point x="179" y="406" type="curve"/>
      <point x="213" y="431"/>
      <point x="224" y="442"/>
      <point x="252" y="470" type="curve"/>
      <point x="260" y="502"/>
      <point x="205" y="551"/>
    </contour>
    <contour>
      <point x="407" y="534" type="curve" smooth="yes"/>
      <point x="261" y="485"/>
      <point x="265" y="329"/>
      <point x="261" y="256" type="curve" smooth="yes"/>
      <point x="252" y="115"/>
      <point x="338" y="-10"/>
      <point x="393" y="-11" type="curve" smooth="yes"/>
      <point x="436" y="-12"/>
      <point x="468" y="33"/>
      <point x="468" y="80" type="curve" smooth="yes"/>
      <point x="468" y="148"/>
      <point x="417" y="202"/>
      <point x="378" y="173" type="curve"/>
      <point x="329" y="225"/>
      <point x="354" y="443"/>
      <point x="378" y="448" type="curve" smooth="yes"/>
      <point x="402" y="452"/>
      <point x="407" y="421"/>
      <point x="407" y="401" type="curve"/>
      <point x="440" y="425"/>
      <point x="451" y="436"/>
      <point x="479" y="463" type="curve"/>
      <point x="486" y="494"/>
      <point x="445" y="547"/>
    </contour>
  </outline>
</glyph>
<glyph name="uni0EC3" format="2">
  <advance width="383"/>
  <unicode hex="0EC3"/>
  <outline>
    <contour>
      <point x="180" y="602" type="curve" smooth="yes"/>
      <point x="166" y="411"/>
      <point x="163" y="358"/>
      <point x="162" y="204" type="curve"/>
      <point x="162" y="143"/>
      <point x="194" y="-37"/>
      <point x="279" y="-37" type="curve" smooth="yes"/>
      <point x="327" y="-37"/>
      <point x="345" y="58"/>
      <point x="345" y="93" type="curve" smooth="yes"/>
      <point x="345" y="134"/>
      <point x="348" y="178"/>
      <point x="291" y="178" type="curve" smooth="yes"/>
      <point x="283" y="178"/>
      <point x="275" y="172"/>
      <point x="266" y="172" type="curve"/>
      <point x="265" y="172"/>
      <point x="264" y="174"/>
      <point x="264" y="175" type="curve"/>
      <point x="259" y="193"/>
      <point x="259" y="217"/>
      <point x="259" y="236" type="curve" smooth="yes"/>
      <point x="259" y="390"/>
      <point x="263" y="427"/>
      <point x="275" y="635" type="curve" smooth="yes"/>
      <point x="278" y="693"/>
      <point x="332" y="691"/>
      <point x="326" y="766" type="curve" smooth="yes"/>
      <point x="319" y="854"/>
      <point x="241" y="928"/>
      <point x="152" y="918" type="curve" smooth="yes"/>
      <point x="39" y="905"/>
      <point x="-53" y="822"/>
      <point x="-67" y="722" type="curve" smooth="yes"/>
      <point x="-78" y="642"/>
      <point x="-22" y="622"/>
      <point x="57" y="602" type="curve" smooth="yes"/>
      <point x="99" y="592"/>
      <point x="149" y="623"/>
      <point x="165" y="664" type="curve" smooth="yes"/>
      <point x="170" y="676"/>
      <point x="152" y="735"/>
      <point x="131" y="700" type="curve" smooth="yes"/>
      <point x="118" y="678"/>
      <point x="111" y="650"/>
      <point x="83" y="650" type="curve" smooth="yes"/>
      <point x="16" y="650"/>
      <point x="9" y="690"/>
      <point x="12" y="724" type="curve" smooth="yes"/>
      <point x="16" y="772"/>
      <point x="49" y="822"/>
      <point x="152" y="836" type="curve" smooth="yes"/>
      <point x="225" y="846"/>
      <point x="275" y="776"/>
      <point x="237" y="722" type="curve" smooth="yes"/>
      <point x="207" y="680"/>
      <point x="183" y="649"/>
    </contour>
  </outline>
</glyph>
<glyph name="uni0EC4" format="2">
  <advance width="363"/>
  <unicode hex="0EC4"/>
  <outline>
    <contour>
      <point x="121" y="605" type="curve" smooth="yes"/>
      <point x="104" y="423"/>
      <point x="100" y="358"/>
      <point x="99" y="204" type="curve"/>
      <point x="99" y="143"/>
      <point x="131" y="-37"/>
      <point x="216" y="-37" type="curve" smooth="yes"/>
      <point x="264" y="-37"/>
      <point x="282" y="58"/>
      <point x="282" y="93" type="curve" smooth="yes"/>
      <point x="282" y="134"/>
      <point x="285" y="178"/>
      <point x="228" y="178" type="curve" smooth="yes"/>
      <point x="220" y="178"/>
      <point x="212" y="172"/>
      <point x="203" y="172" type="curve"/>
      <point x="202" y="172"/>
      <point x="201" y="174"/>
      <point x="201" y="175" type="curve"/>
      <point x="196" y="193"/>
      <point x="188" y="201"/>
      <point x="184" y="220" type="curve" smooth="yes"/>
      <point x="170" y="280"/>
      <point x="171" y="339"/>
      <point x="196" y="632" type="curve" smooth="yes"/>
      <point x="202" y="700"/>
      <point x="355" y="746"/>
      <point x="379" y="856" type="curve" smooth="yes"/>
      <point x="391" y="913"/>
      <point x="323" y="954"/>
      <point x="265" y="954" type="curve" smooth="yes"/>
      <point x="161" y="954"/>
      <point x="113" y="942"/>
      <point x="40" y="869" type="curve" smooth="yes"/>
      <point x="0" y="829"/>
      <point x="17" y="754"/>
      <point x="44" y="776" type="curve" smooth="yes"/>
      <point x="120" y="840"/>
      <point x="170" y="870"/>
      <point x="249" y="870" type="curve" smooth="yes"/>
      <point x="262" y="870"/>
      <point x="285" y="862"/>
      <point x="277" y="851" type="curve" smooth="yes"/>
      <point x="218" y="770"/>
      <point x="130" y="700"/>
    </contour>
  </outline>
</glyph>
<glyph name="uni0EC6" format="2">
  <advance width="627"/>
  <unicode hex="0EC6"/>
  <outline>
    <contour>
      <point x="150" y="483" type="curve" smooth="yes"/>
      <point x="81" y="424"/>
      <point x="106" y="264"/>
      <point x="227" y="264" type="curve" smooth="yes"/>
      <point x="266" y="264"/>
      <point x="291" y="293"/>
      <point x="291" y="316" type="curve" smooth="yes"/>
      <point x="291" y="343"/>
      <point x="254" y="377"/>
      <point x="202" y="367" type="curve"/>
      <point x="202" y="367"/>
      <point x="160" y="388"/>
      <point x="211" y="426" type="curve" smooth="yes"/>
      <point x="274" y="473"/>
      <point x="303" y="403"/>
      <point x="312" y="365" type="curve" smooth="yes"/>
      <point x="320" y="332"/>
      <point x="357" y="310"/>
      <point x="380" y="333" type="curve" smooth="yes"/>
      <point x="393" y="346"/>
      <point x="395" y="366"/>
      <point x="398" y="394" type="curve" smooth="yes"/>
      <point x="400" y="413"/>
      <point x="427" y="429"/>
      <point x="449" y="429" type="curve" smooth="yes"/>
      <point x="535" y="429"/>
      <point x="513" y="287"/>
      <point x="513" y="230" type="curve" smooth="yes"/>
      <point x="513" y="101" type="line" smooth="yes"/>
      <point x="513" y="18"/>
      <point x="409" y="-90"/>
      <point x="330" y="-104" type="curve"/>
      <point x="341" y="-108"/>
      <point x="388" y="-118"/>
      <point x="399" y="-118" type="curve" smooth="yes"/>
      <point x="549" y="-118"/>
      <point x="610" y="72"/>
      <point x="610" y="198" type="curve" smooth="yes"/>
      <point x="610" y="295"/>
      <point x="609" y="522"/>
      <point x="469" y="522" type="curve" smooth="yes"/>
      <point x="421" y="522"/>
      <point x="392" y="452"/>
      <point x="362" y="452" type="curve"/>
      <point x="362" y="452" type="line"/>
      <point x="362" y="452"/>
      <point x="358" y="452"/>
      <point x="358" y="452" type="curve"/>
      <point x="342" y="511"/>
      <point x="247" y="566"/>
    </contour>
  </outline>
</glyph>
<glyph name="uni0EC9" format="2">
  <advance width="-8"/>
  <unicode hex="0EC9"/>
  <anchor x="-275" y="777" name="_top"/>
  <anchor x="-275" y="828" name="_tonemark"/>
  <outline>
    <contour>
      <point x="-358" y="852" type="curve" smooth="yes"/>
      <point x="-374" y="851"/>
      <point x="-382" y="852"/>
      <point x="-398" y="853" type="curve" smooth="yes"/>
      <point x="-416" y="855"/>
      <point x="-428" y="855"/>
      <point x="-443" y="860" type="curve" smooth="yes"/>
      <point x="-449" y="862"/>
      <point x="-447" y="870"/>
      <point x="-443" y="875" type="curve" smooth="yes"/>
      <point x="-425" y="897"/>
      <point x="-410" y="910"/>
      <point x="-393" y="936" type="curve" smooth="yes"/>
      <point x="-389" y="942"/>
      <point x="-388" y="953"/>
      <point x="-394" y="951" type="curve" smooth="yes"/>
      <point x="-416" y="944"/>
      <point x="-422" y="930"/>
      <point x="-446" y="935" type="curve" smooth="yes"/>
      <point x="-459" y="938"/>
      <point x="-469" y="957"/>
      <point x="-467" y="970" type="curve" smooth="yes"/>
      <point x="-463" y="993"/>
      <point x="-459" y="1004"/>
      <point x="-443" y="1020" type="curve" smooth="yes"/>
      <point x="-408" y="1054"/>
      <point x="-374" y="1076"/>
      <point x="-353" y="1076" type="curve" smooth="yes"/>
      <point x="-312" y="1076"/>
      <point x="-284" y="1031"/>
      <point x="-284" y="1004" type="curve" smooth="yes"/>
      <point x="-284" y="981"/>
      <point x="-289" y="972"/>
      <point x="-302" y="946" type="curve"/>
      <point x="-259" y="946"/>
      <point x="-248" y="944"/>
      <point x="-202" y="944" type="curve" smooth="yes"/>
      <point x="-195" y="944"/>
      <point x="-199" y="948"/>
      <point x="-191" y="949" type="curve" smooth="yes"/>
      <point x="-181" y="950"/>
      <point x="-184" y="962"/>
      <point x="-182" y="971" type="curve" smooth="yes"/>
      <point x="-179" y="988"/>
      <point x="-134" y="1011"/>
      <point x="-97" y="1022" type="curve" smooth="yes"/>
      <point x="-84" y="1026"/>
      <point x="-82" y="1004"/>
      <point x="-82" y="991" type="curve" smooth="yes"/>
      <point x="-82" y="957"/>
      <point x="-96" y="939"/>
      <point x="-120" y="917" type="curve" smooth="yes"/>
      <point x="-161" y="879"/>
      <point x="-192" y="861"/>
      <point x="-246" y="857" type="curve" smooth="yes"/>
      <point x="-309" y="852"/>
      <point x="-314" y="853"/>
    </contour>
  </outline>
</glyph>
<glyph name="uni0ECA" format="2">
  <advance width="1"/>
  <unicode hex="0ECA"/>
  <anchor x="-532" y="742" name="_top"/>
  <anchor x="-532" y="790" name="_tonemark"/>
  <outline>
    <contour>
      <point x="-526" y="997" type="curve" smooth="yes"/>
      <point x="-522" y="1017"/>
      <point x="-504" y="1027"/>
      <point x="-482" y="1027" type="curve" smooth="yes"/>
      <point x="-419" y="1027"/>
      <point x="-393" y="983"/>
      <point x="-396" y="961" type="curve" smooth="yes"/>
      <point x="-404" y="898"/>
      <point x="-436" y="888"/>
      <point x="-451" y="872" type="curve"/>
      <point x="-451" y="858"/>
      <point x="-387" y="837"/>
      <point x="-365" y="833" type="curve"/>
      <point x="-296" y="844"/>
      <point x="-289" y="954"/>
      <point x="-289" y="985" type="curve" smooth="yes"/>
      <point x="-289" y="1033"/>
      <point x="-330" y="1123"/>
      <point x="-445" y="1123" type="curve" smooth="yes"/>
      <point x="-493" y="1123"/>
      <point x="-522" y="1053"/>
      <point x="-552" y="1053" type="curve"/>
      <point x="-552" y="1053" type="line"/>
      <point x="-552" y="1053"/>
      <point x="-556" y="1053"/>
      <point x="-556" y="1053" type="curve"/>
      <point x="-589" y="1090"/>
      <point x="-611" y="1120"/>
      <point x="-663" y="1120" type="curve" smooth="yes"/>
      <point x="-793" y="1120"/>
      <point x="-837" y="1028"/>
      <point x="-837" y="970" type="curve" smooth="yes"/>
      <point x="-837" y="934"/>
      <point x="-829" y="817"/>
      <point x="-721" y="817" type="curve" smooth="yes"/>
      <point x="-666" y="817"/>
      <point x="-637" y="859"/>
      <point x="-637" y="893" type="curve" smooth="yes"/>
      <point x="-637" y="932"/>
      <point x="-663" y="976"/>
      <point x="-726" y="968" type="curve"/>
      <point x="-737" y="994"/>
      <point x="-734" y="986"/>
      <point x="-734" y="992" type="curve" smooth="yes"/>
      <point x="-734" y="1005"/>
      <point x="-723" y="986"/>
      <point x="-700" y="1027" type="curve"/>
      <point x="-700" y="1027"/>
      <point x="-697" y="1027"/>
      <point x="-693" y="1027" type="curve"/>
      <point x="-623" y="1027"/>
      <point x="-616" y="902"/>
      <point x="-608" y="864" type="curve" smooth="yes"/>
      <point x="-601" y="832"/>
      <point x="-550" y="909"/>
      <point x="-534" y="934" type="curve" smooth="yes"/>
      <point x="-510" y="972"/>
      <point x="-534" y="954"/>
    </contour>
    <contour>
      <point x="-311" y="821" type="line"/>
      <point x="-257" y="825"/>
      <point x="-226" y="843"/>
      <point x="-185" y="881" type="curve" smooth="yes"/>
      <point x="-161" y="903"/>
      <point x="-147" y="921"/>
      <point x="-147" y="955" type="curve" smooth="yes"/>
      <point x="-147" y="968"/>
      <point x="-149" y="990"/>
      <point x="-162" y="986" type="curve" smooth="yes"/>
      <point x="-199" y="975"/>
      <point x="-244" y="952"/>
      <point x="-247" y="935" type="curve" smooth="yes"/>
      <point x="-249" y="926"/>
      <point x="-246" y="914"/>
      <point x="-256" y="913" type="curve" smooth="yes"/>
      <point x="-264" y="912"/>
      <point x="-260" y="908"/>
      <point x="-267" y="908" type="curve" smooth="yes"/>
      <point x="-313" y="908"/>
      <point x="-326" y="923"/>
      <point x="-367" y="910" type="curve" smooth="yes"/>
      <point x="-415" y="895"/>
      <point x="-450" y="886"/>
      <point x="-476" y="842" type="curve" smooth="yes"/>
      <point x="-488" y="822"/>
      <point x="-477" y="815"/>
      <point x="-423" y="817" type="curve" smooth="yes"/>
    </contour>
  </outline>
</glyph>
<glyph name="uni0ED3" format="2">
  <advance width="644"/>
  <unicode hex="0ED3"/>
  <outline>
    <contour>
      <point x="349" y="-5" type="curve" smooth="yes"/>
      <point x="433" y="-9"/>
      <point x="492" y="3"/>
      <point x="521" y="28" type="curve" smooth="yes"/>
      <point x="572" y="72"/>
      <point x="600" y="341"/>
      <point x="536" y="498" type="curve" smooth="yes"/>
      <point x="498" y="591"/>
      <point x="392" y="558"/>
      <point x="333" y="639" type="curve" smooth="yes"/>
      <point x="325" y="650"/>
      <point x="352" y="669"/>
      <point x="361" y="658" type="curve" smooth="yes"/>
      <point x="405" y="609"/>
      <point x="536" y="565"/>
      <point x="594" y="566" type="curve" smooth="yes"/>
      <point x="652" y="567"/>
      <point x="629" y="655"/>
      <point x="596" y="652" type="curve" smooth="yes"/>
      <point x="512" y="645"/>
      <point x="452" y="699"/>
      <point x="345" y="742" type="curve" smooth="yes"/>
      <point x="255" y="778"/>
      <point x="219" y="701"/>
      <point x="231" y="644" type="curve" smooth="yes"/>
      <point x="255" y="534"/>
      <point x="410" y="573"/>
      <point x="441" y="465" type="curve" smooth="yes"/>
      <point x="484" y="317"/>
      <point x="478" y="67"/>
      <point x="382" y="74" type="curve"/>
      <point x="328" y="72"/>
      <point x="327" y="65"/>
      <point x="280" y="94" type="curve" smooth="yes"/>
      <point x="172" y="161"/>
      <point x="221" y="363"/>
      <point x="234" y="335" type="curve" smooth="yes"/>
      <point x="251" y="298"/>
      <point x="286" y="155"/>
      <point x="191" y="60" type="curve" smooth="yes"/>
      <point x="172" y="41"/>
      <point x="151" y="58"/>
      <point x="124" y="57" type="curve"/>
      <point x="108" y="57"/>
      <point x="107" y="-11"/>
      <point x="136" y="-18" type="curve" smooth="yes"/>
      <point x="273" y="-50"/>
      <point x="288" y="75"/>
      <point x="310" y="161" type="curve" smooth="yes"/>
      <point x="321" y="203"/>
      <point x="313" y="234"/>
      <point x="310" y="274" type="curve" smooth="yes"/>
      <point x="297" y="439"/>
      <point x="251" y="432"/>
      <point x="221" y="431" type="curve" smooth="yes"/>
      <point x="200" y="430"/>
      <point x="151" y="427"/>
      <point x="138" y="281" type="curve" smooth="yes"/>
      <point x="134" y="240"/>
      <point x="144" y="175"/>
      <point x="158" y="134" type="curve" smooth="yes"/>
      <point x="187" y="49"/>
      <point x="222" y="0"/>
    </contour>
  </outline>
</glyph>
<glyph name="uni0ED4" format="2">
  <advance width="657"/>
  <unicode hex="0ED4"/>
  <outline>
    <contour>
      <point x="210" y="514" type="move"/>
      <point x="210" y="514" type="line"/>
    </contour>
    <contour>
      <point x="488" y="387" type="curve" smooth="yes"/>
      <point x="599" y="403"/>
      <point x="548" y="441"/>
      <point x="593" y="451" type="curve" smooth="yes"/>
      <point x="627" y="459"/>
      <point x="638" y="445"/>
      <point x="631" y="414" type="curve" smooth="yes"/>
      <point x="610" y="315"/>
      <point x="580" y="321"/>
      <point x="511" y="314" type="curve" smooth="yes"/>
      <point x="494" y="312"/>
      <point x="498" y="277"/>
      <point x="499" y="259" type="curve" smooth="yes"/>
      <point x="503" y="176"/>
      <point x="504" y="72"/>
      <point x="541" y="48" type="curve" smooth="yes"/>
      <point x="561" y="35"/>
      <point x="571" y="62"/>
      <point x="556" y="74" type="curve" smooth="yes"/>
      <point x="522" y="101"/>
      <point x="479" y="80"/>
      <point x="445" y="52" type="curve" smooth="yes"/>
      <point x="347" y="-28"/>
      <point x="207" y="31"/>
      <point x="126" y="161" type="curve" smooth="yes"/>
      <point x="76" y="241"/>
      <point x="54" y="415"/>
      <point x="177" y="545" type="curve" smooth="yes"/>
      <point x="254" y="626"/>
      <point x="350" y="579"/>
      <point x="460" y="600" type="curve"/>
      <point x="503" y="635"/>
      <point x="439" y="670"/>
      <point x="534" y="719" type="curve" smooth="yes"/>
      <point x="549" y="727"/>
      <point x="556" y="697"/>
      <point x="555" y="679" type="curve" smooth="yes"/>
      <point x="552" y="592"/>
      <point x="542" y="575"/>
      <point x="499" y="529" type="curve"/>
      <point x="387" y="468"/>
      <point x="268" y="575"/>
      <point x="194" y="379" type="curve" smooth="yes"/>
      <point x="167" y="307"/>
      <point x="187" y="209"/>
      <point x="241" y="161" type="curve" smooth="yes"/>
      <point x="276" y="130"/>
      <point x="314" y="93"/>
      <point x="377" y="125" type="curve" smooth="yes"/>
      <point x="456" y="164"/>
      <point x="530" y="218"/>
      <point x="599" y="161" type="curve" smooth="yes"/>
      <point x="671" y="101"/>
      <point x="619" y="0"/>
      <point x="541" y="0" type="curve" smooth="yes"/>
      <point x="416" y="0"/>
      <point x="448" y="139"/>
      <point x="428" y="241" type="curve" smooth="yes"/>
      <point x="417" y="298"/>
      <point x="433" y="379"/>
    </contour>
  </outline>
</glyph>
<glyph name="uni0ED7" format="2">
  <advance width="627"/>
  <unicode hex="0ED7"/>
  <outline>
    <contour>
      <point x="123" y="132" type="curve" smooth="yes"/>
      <point x="81" y="146"/>
      <point x="39" y="108"/>
      <point x="43" y="61" type="curve" smooth="yes"/>
      <point x="48" y="7"/>
      <point x="82" y="-34"/>
      <point x="148" y="-31" type="curve" smooth="yes"/>
      <point x="173" y="-30"/>
      <point x="185" y="-18"/>
      <point x="205" y="2" type="curve"/>
      <point x="205" y="1" type="line"/>
      <point x="260" y="46"/>
      <point x="260" y="146"/>
      <point x="247" y="238" type="curve" smooth="yes"/>
      <point x="243" y="266"/>
      <point x="245" y="377"/>
      <point x="253" y="400" type="curve" smooth="yes"/>
      <point x="261" y="421"/>
      <point x="295" y="454"/>
      <point x="338" y="452" type="curve" smooth="yes"/>
      <point x="366" y="451"/>
      <point x="375" y="444"/>
      <point x="401" y="419" type="curve" smooth="yes"/>
      <point x="441" y="380"/>
      <point x="462" y="305"/>
      <point x="462" y="248" type="curve" smooth="yes"/>
      <point x="462" y="179"/>
      <point x="462" y="92"/>
      <point x="465" y="30" type="curve"/>
      <point x="473" y="-32"/>
      <point x="490" y="-226"/>
      <point x="516" y="-250" type="curve"/>
      <point x="556" y="-310"/>
      <point x="614" y="-250"/>
      <point x="601" y="-226" type="curve"/>
      <point x="601" y="-227" type="line"/>
      <point x="550" y="-130"/>
      <point x="555" y="165"/>
      <point x="560" y="278" type="curve" smooth="yes"/>
      <point x="564" y="377"/>
      <point x="546" y="444"/>
      <point x="496" y="492" type="curve" smooth="yes"/>
      <point x="466" y="521"/>
      <point x="427" y="553"/>
      <point x="375" y="554" type="curve" smooth="yes"/>
      <point x="288" y="555"/>
      <point x="252" y="487"/>
      <point x="228" y="460" type="curve" smooth="yes"/>
      <point x="222" y="453"/>
      <point x="235" y="530"/>
      <point x="159" y="557" type="curve"/>
      <point x="128" y="568"/>
      <point x="79" y="570"/>
      <point x="54" y="546" type="curve" smooth="yes"/>
      <point x="30" y="523"/>
      <point x="30" y="471"/>
      <point x="51" y="454" type="curve" smooth="yes"/>
      <point x="99" y="414"/>
      <point x="108" y="407"/>
      <point x="123" y="379" type="curve" smooth="yes"/>
      <point x="144" y="340"/>
      <point x="150" y="287"/>
      <point x="150" y="241" type="curve"/>
      <point x="150" y="240" type="line" smooth="yes"/>
      <point x="150" y="135"/>
      <point x="138" y="127"/>
    </contour>
  </outline>
</glyph>
<glyph name="uni0ED8" format="2">
  <advance width="651"/>
  <unicode hex="0ED8"/>
  <outline>
    <contour>
      <point x="561" y="61" type="curve" smooth="yes"/>
      <point x="483" y="35"/>
      <point x="353" y="-32"/>
      <point x="239" y="-112" type="curve" smooth="yes"/>
      <point x="223" y="-123"/>
      <point x="227" y="-96"/>
      <point x="241" y="-83" type="curve" smooth="yes"/>
      <point x="395" y="57"/>
      <point x="561" y="117"/>
      <point x="623" y="222" type="curve" smooth="yes"/>
      <point x="629" y="233"/>
      <point x="649" y="276"/>
      <point x="605" y="247" type="curve" smooth="yes"/>
      <point x="444" y="141"/>
      <point x="362" y="106"/>
      <point x="210" y="-12" type="curve" smooth="yes"/>
      <point x="181" y="-35"/>
      <point x="140" y="-76"/>
      <point x="144" y="-112" type="curve" smooth="yes"/>
      <point x="148" y="-151"/>
      <point x="178" y="-192"/>
      <point x="217" y="-184" type="curve" smooth="yes"/>
      <point x="364" y="-153"/>
      <point x="395" y="-78"/>
      <point x="538" y="-36" type="curve" smooth="yes"/>
      <point x="575" y="-25"/>
      <point x="608" y="-23"/>
      <point x="613" y="-73" type="curve" smooth="yes"/>
      <point x="617" y="-110"/>
      <point x="565" y="-135"/>
      <point x="515" y="-102" type="curve" smooth="yes"/>
      <point x="404" y="-28"/>
      <point x="512" y="101"/>
      <point x="513" y="246" type="curve" smooth="yes"/>
      <point x="514" y="358"/>
      <point x="533" y="407"/>
      <point x="496" y="492" type="curve" smooth="yes"/>
      <point x="480" y="530"/>
      <point x="427" y="553"/>
      <point x="375" y="554" type="curve" smooth="yes"/>
      <point x="288" y="555"/>
      <point x="252" y="487"/>
      <point x="228" y="460" type="curve" smooth="yes"/>
      <point x="222" y="453"/>
      <point x="192" y="529"/>
      <point x="147" y="550" type="curve" smooth="yes"/>
      <point x="131" y="557"/>
      <point x="92" y="541"/>
      <point x="73" y="522" type="curve" smooth="yes"/>
      <point x="53" y="502"/>
      <point x="20" y="475"/>
      <point x="51" y="454" type="curve" smooth="yes"/>
      <point x="74" y="439"/>
      <point x="108" y="407"/>
      <point x="123" y="379" type="curve" smooth="yes"/>
      <point x="144" y="340"/>
      <point x="150" y="287"/>
      <point x="150" y="241" type="curve"/>
      <point x="138" y="242"/>
      <point x="135" y="244"/>
      <point x="126" y="242" type="curve" smooth="yes"/>
      <point x="81" y="231"/>
      <point x="56" y="156"/>
      <point x="60" y="109" type="curve" smooth="yes"/>
      <point x="65" y="55"/>
      <point x="108" y="-11"/>
      <point x="141" y="-11" type="curve" smooth="yes"/>
      <point x="166" y="-11"/>
      <point x="178" y="2"/>
      <point x="198" y="22" type="curve" smooth="yes"/>
      <point x="237" y="62"/>
      <point x="244" y="117"/>
      <point x="251" y="247" type="curve" smooth="yes"/>
      <point x="254" y="302"/>
      <point x="227" y="334"/>
      <point x="243" y="376" type="curve" smooth="yes"/>
      <point x="251" y="397"/>
      <point x="284" y="442"/>
      <point x="327" y="440" type="curve" smooth="yes"/>
      <point x="355" y="439"/>
      <point x="364" y="432"/>
      <point x="390" y="407" type="curve" smooth="yes"/>
      <point x="430" y="368"/>
      <point x="418" y="287"/>
      <point x="418" y="230" type="curve" smooth="yes"/>
      <point x="418" y="161"/>
      <point x="307" y="-33"/>
      <point x="434" y="-161" type="curve" smooth="yes"/>
      <point x="459" y="-186"/>
      <point x="515" y="-199"/>
      <point x="549" y="-199" type="curve" smooth="yes"/>
      <point x="615" y="-199"/>
      <point x="693" y="-107"/>
      <point x="693" y="-45" type="curve" smooth="yes"/>
      <point x="693" y="28"/>
      <point x="628" y="83"/>
    </contour>
  </outline>
</glyph>
<glyph name="uni0ED9" format="2">
  <advance width="763"/>
  <unicode hex="0ED9"/>
  <outline>
    <contour>
      <point x="230" y="210" type="curve" smooth="yes"/>
      <point x="236" y="180"/>
      <point x="300" y="180"/>
      <point x="295" y="109" type="curve" smooth="yes"/>
      <point x="292" y="55"/>
      <point x="268" y="-8"/>
      <point x="211" y="-8" type="curve" smooth="yes"/>
      <point x="131" y="-8"/>
      <point x="131" y="53"/>
      <point x="131" y="106" type="curve" smooth="yes"/>
      <point x="131" y="155"/>
      <point x="124" y="231"/>
      <point x="124" y="298" type="curve" smooth="yes"/>
      <point x="124" y="412"/>
      <point x="193" y="542"/>
      <point x="291" y="542" type="curve" smooth="yes"/>
      <point x="413" y="542"/>
      <point x="467" y="405"/>
      <point x="467" y="302" type="curve" smooth="yes"/>
      <point x="467" y="245"/>
      <point x="459" y="188"/>
      <point x="459" y="131" type="curve" smooth="yes"/>
      <point x="459" y="112"/>
      <point x="459" y="97"/>
      <point x="474" y="85" type="curve"/>
      <point x="478" y="85"/>
      <point x="489" y="85"/>
      <point x="493" y="85" type="curve" smooth="yes"/>
      <point x="585" y="85"/>
      <point x="611" y="196"/>
      <point x="611" y="272" type="curve" smooth="yes"/>
      <point x="611" y="344"/>
      <point x="605" y="394"/>
      <point x="562" y="466" type="curve" smooth="yes"/>
      <point x="544" y="496"/>
      <point x="607" y="542"/>
      <point x="642" y="542" type="curve" smooth="yes"/>
      <point x="710" y="542"/>
      <point x="725" y="344"/>
      <point x="725" y="306" type="curve" smooth="yes"/>
      <point x="725" y="180"/>
      <point x="695" y="-10"/>
      <point x="535" y="-10" type="curve" smooth="yes"/>
      <point x="527" y="-10"/>
      <point x="508" y="-10"/>
      <point x="505" y="-10" type="curve"/>
      <point x="440" y="5"/>
      <point x="360" y="93"/>
      <point x="360" y="161" type="curve" smooth="yes"/>
      <point x="360" y="336" type="line" smooth="yes"/>
      <point x="360" y="378"/>
      <point x="337" y="428"/>
      <point x="291" y="428" type="curve"/>
      <point x="291" y="428" type="line"/>
      <point x="253" y="428"/>
      <point x="206" y="333"/>
    </contour>
  </outline>
</glyph>
<glyph name="uni0EDD" format="2">
  <advance width="988"/>
  <unicode hex="0EDD"/>
  <anchor x="704" y="507" name="top"/>
  <anchor x="742" y="-33" name="bottom"/>
  <outline>
    <contour>
      <point x="458" y="303" type="curve"/>
      <point x="426" y="346"/>
      <point x="385" y="358"/>
      <point x="377" y="414" type="curve" smooth="yes"/>
      <point x="371" y="455"/>
      <point x="343" y="471"/>
      <point x="322" y="507" type="curve"/>
      <point x="320" y="515"/>
      <point x="307" y="533"/>
      <point x="335" y="532" type="curve" smooth="yes"/>
      <point x="385" y="530"/>
      <point x="426" y="538"/>
      <point x="436" y="490" type="curve" smooth="yes"/>
      <point x="450" y="422"/>
      <point x="462" y="351"/>
    </contour>
    <contour>
      <point x="630" y="53" type="curve"/>
      <point x="606" y="-40"/>
      <point x="471" y="-18"/>
      <point x="493" y="91" type="curve" smooth="yes"/>
      <point x="506" y="158"/>
      <point x="582" y="185"/>
      <point x="582" y="277" type="curve" smooth="yes"/>
      <point x="582" y="343"/>
      <point x="528" y="442"/>
      <point x="500" y="439" type="curve" smooth="yes"/>
      <point x="476" y="437"/>
      <point x="459" y="412"/>
      <point x="459" y="394" type="curve" smooth="yes"/>
      <point x="459" y="338"/>
      <point x="467" y="282"/>
      <point x="467" y="226" type="curve" smooth="yes"/>
      <point x="467" y="124"/>
      <point x="413" y="-10"/>
      <point x="291" y="-10" type="curve" smooth="yes"/>
      <point x="193" y="-10"/>
      <point x="124" y="93"/>
      <point x="124" y="184" type="curve" smooth="yes"/>
      <point x="124" y="237"/>
      <point x="151" y="287"/>
      <point x="151" y="336" type="curve" smooth="yes"/>
      <point x="151" y="367"/>
      <point x="101" y="363"/>
      <point x="105" y="428" type="curve"/>
      <point x="109" y="477"/>
      <point x="132" y="534"/>
      <point x="189" y="534" type="curve" smooth="yes"/>
      <point x="269" y="534"/>
      <point x="269" y="473"/>
      <point x="269" y="420" type="curve" smooth="yes"/>
      <point x="269" y="348"/>
      <point x="231" y="279"/>
      <point x="231" y="207" type="curve" smooth="yes"/>
      <point x="231" y="177"/>
      <point x="253" y="104"/>
      <point x="291" y="104" type="curve"/>
      <point x="291" y="104" type="line"/>
      <point x="337" y="104"/>
      <point x="360" y="154"/>
      <point x="360" y="196" type="curve" smooth="yes"/>
      <point x="360" y="371" type="line" smooth="yes"/>
      <point x="360" y="441"/>
      <point x="461" y="520"/>
      <point x="508" y="520" type="curve"/>
      <point x="511" y="520"/>
      <point x="528" y="520"/>
      <point x="532" y="520" type="curve" smooth="yes"/>
      <point x="649" y="520"/>
      <point x="675" y="395"/>
      <point x="684" y="190" type="curve" smooth="yes"/>
      <point x="687" y="127"/>
      <point x="697" y="105"/>
      <point x="729" y="105" type="curve" smooth="yes"/>
      <point x="804" y="105"/>
      <point x="802" y="175"/>
      <point x="802" y="235" type="curve" smooth="yes"/>
      <point x="802" y="330"/>
      <point x="775" y="408"/>
      <point x="718" y="465" type="curve"/>
      <point x="717" y="466"/>
      <point x="717" y="467"/>
      <point x="717" y="469" type="curve"/>
      <point x="717" y="488"/>
      <point x="802" y="536"/>
      <point x="823" y="536" type="curve"/>
      <point x="825" y="536"/>
      <point x="826" y="535"/>
      <point x="827" y="534" type="curve"/>
      <point x="897" y="397"/>
      <point x="915" y="289"/>
      <point x="912" y="245" type="curve" smooth="yes"/>
      <point x="904" y="144"/>
      <point x="884" y="-9"/>
      <point x="767" y="-8" type="curve" smooth="yes"/>
      <point x="701" y="-7"/>
      <point x="667" y="3"/>
    </contour>
  </outline>
</glyph>
<glyph name="uni25CC" format="2">
  <advance width="649"/>
  <unicode hex="25CC"/>
  <anchor x="323" y="606" name="top"/>
  <anchor x="323" y="-22" name="bottom"/>
  <outline>
    <contour>
      <point x="390" y="87" type="curve" smooth="yes"/>
      <point x="390" y="96"/>
      <point x="398" y="104"/>
      <point x="407" y="104" type="curve" smooth="yes"/>
      <point x="416" y="104"/>
      <point x="420" y="95"/>
      <point x="420" y="87" type="curve" smooth="yes"/>
      <point x="420" y="77"/>
      <point x="410" y="72"/>
      <point x="401" y="72" type="curve" smooth="yes"/>
      <point x="391" y="72"/>
      <point x="390" y="79"/>
    </contour>
    <contour>
      <point x="464" y="134" type="curve" smooth="yes"/>
      <point x="464" y="142"/>
      <point x="467" y="148"/>
      <point x="476" y="148" type="curve" smooth="yes"/>
      <point x="484" y="148"/>
      <point x="494" y="143"/>
      <point x="494" y="134" type="curve" smooth="yes"/>
      <point x="494" y="125"/>
      <point x="491" y="119"/>
      <point x="481" y="119" type="curve" smooth="yes"/>
      <point x="472" y="119"/>
      <point x="464" y="124"/>
    </contour>
    <contour>
      <point x="510" y="208" type="curve" smooth="yes"/>
      <point x="510" y="218"/>
      <point x="518" y="222"/>
      <point x="527" y="222" type="curve" smooth="yes"/>
      <point x="536" y="222"/>
      <point x="540" y="217"/>
      <point x="540" y="208" type="curve" smooth="yes"/>
      <point x="540" y="199"/>
      <point x="534" y="190"/>
      <point x="524" y="190" type="curve" smooth="yes"/>
      <point x="514" y="190"/>
      <point x="510" y="200"/>
    </contour>
    <contour>
      <point x="529" y="292" type="curve" smooth="yes"/>
      <point x="529" y="299"/>
      <point x="533" y="306"/>
      <point x="540" y="306" type="curve" smooth="yes"/>
      <point x="549" y="306"/>
      <point x="559" y="302"/>
      <point x="559" y="292" type="curve" smooth="yes"/>
      <point x="559" y="282"/>
      <point x="550" y="276"/>
      <point x="540" y="276" type="curve" smooth="yes"/>
      <point x="531" y="276"/>
      <point x="529" y="284"/>
    </contour>
    <contour>
      <point x="255" y="87" type="curve" smooth="yes"/>
      <point x="255" y="79"/>
      <point x="254" y="72"/>
      <point x="244" y="72" type="curve" smooth="yes"/>
      <point x="235" y="72"/>
      <point x="225" y="77"/>
      <point x="225" y="87" type="curve" smooth="yes"/>
      <point x="225" y="95"/>
      <point x="229" y="104"/>
      <point x="238" y="104" type="curve" smooth="yes"/>
      <point x="247" y="104"/>
      <point x="255" y="96"/>
    </contour>
    <contour>
      <point x="181" y="134" type="curve" smooth="yes"/>
      <point x="181" y="124"/>
      <point x="173" y="119"/>
      <point x="164" y="119" type="curve" smooth="yes"/>
      <point x="154" y="119"/>
      <point x="151" y="125"/>
      <point x="151" y="134" type="curve" smooth="yes"/>
      <point x="151" y="143"/>
      <point x="161" y="148"/>
      <point x="169" y="148" type="curve" smooth="yes"/>
      <point x="178" y="148"/>
      <point x="181" y="142"/>
    </contour>
    <contour>
      <point x="135" y="208" type="curve" smooth="yes"/>
      <point x="135" y="200"/>
      <point x="131" y="190"/>
      <point x="121" y="190" type="curve" smooth="yes"/>
      <point x="111" y="190"/>
      <point x="105" y="199"/>
      <point x="105" y="208" type="curve" smooth="yes"/>
      <point x="105" y="217"/>
      <point x="109" y="222"/>
      <point x="118" y="222" type="curve" smooth="yes"/>
      <point x="127" y="222"/>
      <point x="135" y="218"/>
    </contour>
    <contour>
      <point x="116" y="292" type="curve" smooth="yes"/>
      <point x="116" y="284"/>
      <point x="114" y="276"/>
      <point x="105" y="276" type="curve" smooth="yes"/>
      <point x="95" y="276"/>
      <point x="86" y="282"/>
      <point x="86" y="292" type="curve" smooth="yes"/>
      <point x="86" y="302"/>
      <point x="96" y="306"/>
      <point x="105" y="306" type="curve" smooth="yes"/>
      <point x="112" y="306"/>
      <point x="116" y="299"/>
    </contour>
    <contour>
      <point x="307" y="68" type="curve" smooth="yes"/>
      <point x="307" y="77"/>
      <point x="313" y="86"/>
      <point x="323" y="86" type="curve" smooth="yes"/>
      <point x="334" y="86"/>
      <point x="337" y="78"/>
      <point x="337" y="68" type="curve" smooth="yes"/>
      <point x="337" y="58"/>
      <point x="327" y="53"/>
      <point x="318" y="53" type="curve" smooth="yes"/>
      <point x="308" y="53"/>
      <point x="307" y="60"/>
    </contour>
    <contour>
      <point x="386" y="497" type="curve" smooth="yes"/>
      <point x="386" y="505"/>
      <point x="387" y="512"/>
      <point x="397" y="512" type="curve" smooth="yes"/>
      <point x="406" y="512"/>
      <point x="416" y="507"/>
      <point x="416" y="497" type="curve" smooth="yes"/>
      <point x="416" y="489"/>
      <point x="412" y="480"/>
      <point x="403" y="480" type="curve" smooth="yes"/>
      <point x="394" y="480"/>
      <point x="386" y="488"/>
    </contour>
    <contour>
      <point x="460" y="450" type="curve" smooth="yes"/>
      <point x="460" y="460"/>
      <point x="468" y="465"/>
      <point x="477" y="465" type="curve" smooth="yes"/>
      <point x="487" y="465"/>
      <point x="490" y="459"/>
      <point x="490" y="450" type="curve" smooth="yes"/>
      <point x="490" y="441"/>
      <point x="480" y="436"/>
      <point x="472" y="436" type="curve" smooth="yes"/>
      <point x="463" y="436"/>
      <point x="460" y="442"/>
    </contour>
    <contour>
      <point x="506" y="376" type="curve" smooth="yes"/>
      <point x="506" y="384"/>
      <point x="510" y="394"/>
      <point x="520" y="394" type="curve" smooth="yes"/>
      <point x="530" y="394"/>
      <point x="536" y="385"/>
      <point x="536" y="376" type="curve" smooth="yes"/>
      <point x="536" y="367"/>
      <point x="532" y="362"/>
      <point x="523" y="362" type="curve" smooth="yes"/>
      <point x="514" y="362"/>
      <point x="506" y="366"/>
    </contour>
    <contour>
      <point x="251" y="497" type="curve" smooth="yes"/>
      <point x="251" y="488"/>
      <point x="243" y="480"/>
      <point x="234" y="480" type="curve" smooth="yes"/>
      <point x="225" y="480"/>
      <point x="221" y="489"/>
      <point x="221" y="497" type="curve" smooth="yes"/>
      <point x="221" y="507"/>
      <point x="231" y="512"/>
      <point x="240" y="512" type="curve" smooth="yes"/>
      <point x="250" y="512"/>
      <point x="251" y="505"/>
    </contour>
    <contour>
      <point x="177" y="450" type="curve" smooth="yes"/>
      <point x="177" y="442"/>
      <point x="174" y="436"/>
      <point x="165" y="436" type="curve" smooth="yes"/>
      <point x="157" y="436"/>
      <point x="147" y="441"/>
      <point x="147" y="450" type="curve" smooth="yes"/>
      <point x="147" y="459"/>
      <point x="150" y="465"/>
      <point x="160" y="465" type="curve" smooth="yes"/>
      <point x="169" y="465"/>
      <point x="177" y="460"/>
    </contour>
    <contour>
      <point x="131" y="376" type="curve" smooth="yes"/>
      <point x="131" y="366"/>
      <point x="123" y="362"/>
      <point x="114" y="362" type="curve" smooth="yes"/>
      <point x="105" y="362"/>
      <point x="101" y="367"/>
      <point x="101" y="376" type="curve" smooth="yes"/>
      <point x="101" y="385"/>
      <point x="107" y="394"/>
      <point x="117" y="394" type="curve" smooth="yes"/>
      <point x="127" y="394"/>
      <point x="131" y="384"/>
    </contour>
    <contour>
      <point x="303" y="516" type="curve" smooth="yes"/>
      <point x="303" y="524"/>
      <point x="304" y="531"/>
      <point x="314" y="531" type="curve" smooth="yes"/>
      <point x="323" y="531"/>
      <point x="333" y="526"/>
      <point x="333" y="516" type="curve" smooth="yes"/>
      <point x="333" y="506"/>
      <point x="330" y="498"/>
      <point x="319" y="498" type="curve" smooth="yes"/>
      <point x="309" y="498"/>
      <point x="303" y="507"/>
    </contour>
  </outline>
</glyph>
